<?xml version="1.0" standalone="no"?>
<!DOCTYPE svg PUBLIC "-//W3C//DTD SVG 1.1//EN" "http://www.w3.org/Graphics/SVG/1.1/DTD/svg11.dtd" >
<svg xmlns="http://www.w3.org/2000/svg">
<metadata>
Created by FontForge 20120731 at Thu May  4 21:41:50 2017
 By admin
</metadata>
<defs>
<font id="iconfont" horiz-adv-x="1024" >
  <font-face 
    font-family="iconfont"
    font-weight="500"
    font-stretch="normal"
    units-per-em="1024"
    panose-1="2 0 6 3 0 0 0 0 0 0"
    ascent="896"
    descent="-128"
    x-height="792"
    bbox="-0.713043 -224 1576 904"
    underline-thickness="0"
    underline-position="0"
    unicode-range="U+0078-E95F"
  />
<missing-glyph 
 />
    <glyph glyph-name=".notdef" 
 />
    <glyph glyph-name=".notdef" 
 />
    <glyph glyph-name=".null" horiz-adv-x="0" 
 />
    <glyph glyph-name="nonmarkingreturn" horiz-adv-x="341" 
 />
    <glyph glyph-name="x" unicode="x" horiz-adv-x="1001" 
d="M281 543q-27 -1 -53 -1h-83q-18 0 -36.5 -6t-32.5 -18.5t-23 -32t-9 -45.5v-76h912v41q0 16 -0.5 30t-0.5 18q0 13 -5 29t-17 29.5t-31.5 22.5t-49.5 9h-133v-97h-438v97zM955 310v-52q0 -23 0.5 -52t0.5 -58t-10.5 -47.5t-26 -30t-33 -16t-31.5 -4.5q-14 -1 -29.5 -0.5
t-29.5 0.5h-32l-45 128h-439l-44 -128h-29h-34q-20 0 -45 1q-25 0 -41 9.5t-25.5 23t-13.5 29.5t-4 30v167h911zM163 247q-12 0 -21 -8.5t-9 -21.5t9 -21.5t21 -8.5q13 0 22 8.5t9 21.5t-9 21.5t-22 8.5zM316 123q-8 -26 -14 -48q-5 -19 -10.5 -37t-7.5 -25t-3 -15t1 -14.5
t9.5 -10.5t21.5 -4h37h67h81h80h64h36q23 0 34 12t2 38q-5 13 -9.5 30.5t-9.5 34.5q-5 19 -11 39h-368zM336 498v228q0 11 2.5 23t10 21.5t20.5 15.5t34 6h188q31 0 51.5 -14.5t20.5 -52.5v-227h-327z" />
    <glyph glyph-name="diqiu" unicode="&#xe600;" horiz-adv-x="1000" 
d="M862 412q3 59 -20 61q-42 98 -131.5 159t-200.5 61q-97 0 -180 -48t-131 -131t-48 -181t48 -180.5t131 -131t180.5 -48.5t180.5 48.5t131 131t48 180.5q0 40 -8 79zM217 333q0 54 19 104q4 -2 15.5 -6.5t16.5 -9t5 -12.5q0 -27 1.5 -44t6.5 -37t17.5 -30t31.5 -10
q3 0 10 -3.5t18 -14.5t17 -27q3 -5 9 -5t17.5 2.5t18.5 2.5q5 0 5 -4.5t-2.5 -19.5t-2.5 -29q0 -10 8.5 -23t20.5 -24.5t24.5 -21.5t20.5 -16l8 -6q0 -35 3 -59q-120 2 -204 87.5t-84 205.5zM581 49q8 30 11.5 41.5t11 26.5t19.5 24q23 22 11.5 41t-34.5 16q-11 -1 -14 12.5
t-12 13.5q-10 1 -34 22.5t-36 26.5l-18.5 12t-31.5 13q-6 0 -13 -1.5t-13 -3.5t-11 -3t-8 0t-3 5q0 13 -6 81v4q-1 1 1 0q7 -2 19 -2q8 0 11.5 14t10.5 14q6 1 28.5 -4.5t27.5 -2.5q1 2 6 -6q3 -4 9 -15q24 -40 32 -40q10 0 10 40q0 4 -1.5 14t-1.5 18t3 13q7 11 15.5 25.5
t14 24t11 18.5t7.5 14t1.5 6.5t-8 2.5t-19 0t-20.5 -4q-3 -1 -3 -7t-5 -7q-37 -8 -56 9q-9 8 -3 17q4 6 18.5 10t26.5 10.5t14 21.5q2 24 5 59q78 -12 139.5 -61t89.5 -121q-117 -86 -41 -153q20 -18 44 -55q-25 -68 -79.5 -117.5t-125.5 -66.5z" />
    <glyph glyph-name="wenjuan" unicode="&#x349d;" horiz-adv-x="1000" 
d="M737 755h-587v-878h727v741zM290 42l-56 54v55l56 -55l112 55h56zM290 220l-56 55v55l56 -55l112 55h56zM290 398l-56 55v55l56 -55l112 55h56zM765 69h-252v27h252v-27zM765 234h-252v27h252v-27zM765 426h-252v27h252v-27zM821 590h-140v137h28v-109h112v-28z" />
    <glyph glyph-name="weixin2" unicode="&#xe6a1;" horiz-adv-x="1000" 
d="M352 435q12 0 19.5 7.5t7.5 20.5t-7.5 20.5t-19.5 7.5q-14 0 -24 -8t-10 -20t10 -20t24 -8zM507 491q-13 0 -23 -8t-10 -20t10 -20t23 -8t20.5 7.5t7.5 20.5t-7.5 20.5t-20.5 7.5zM702 282q13 0 20.5 7t7.5 16t-8 15.5t-20 6.5q-8 0 -15 -7t-7 -15.5t7 -15.5t15 -7z
M580 282q12 0 20 7t8 16t-8 15.5t-20 6.5q-8 0 -15 -7t-7 -15.5t7 -15.5t15 -7zM77 316.5q0 -89.5 34.5 -171t93.5 -140t140.5 -93.5t170.5 -35t170.5 35t140 93.5t93.5 140t35 171t-35 170.5t-93.5 140t-140 93.5t-170.5 34.5t-170.5 -34.5t-140.5 -93.5t-93.5 -140
t-34.5 -170.5zM627 430q-79 0 -134 -52.5t-55 -126.5q0 -23 7 -47q-11 -1 -21 -1q-22 0 -78 11l-78 -39l22 68q-89 63 -89 152q0 80 65.5 136t157.5 56q82 0 146 -45t79 -113q-12 1 -22 1zM831 254q0 -71 -78 -130l16 -56l-61 33q-44 -11 -67 -11q-79 0 -134 48t-55 116
t55 116t134 48q76 0 133 -48.5t57 -115.5z" />
    <glyph glyph-name="diannao" unicode="&#xe6a4;" 
d="M960 748h-896q-20 0 -34 -14t-14 -34v-640q0 -20 14 -34t34 -14h304v-80l-64 -64v-16h416v16l-64 64v80h304q20 0 34 14t14 34v640q0 20 -14 34t-34 14zM944 140h-864v544h864v-544z" />
    <glyph glyph-name="shouji1" unicode="&#xe6a5;" 
d="M683 764h-341q-32 0 -54.5 -22.5t-22.5 -54.5v-775q0 -32 22.5 -54.5t54.5 -22.5h341q32 0 54.5 22.5t22.5 54.5v775q0 32 -22.5 54.5t-54.5 22.5zM466 702h93q6 0 10.5 -4.5t4.5 -11t-4.5 -11t-10.5 -4.5h-93q-7 0 -11.5 4.5t-4.5 11t4.5 11t11.5 4.5zM512.5 -134
q-19.5 0 -33 13.5t-13.5 33t13.5 33t33 13.5t33 -13.5t13.5 -33t-13.5 -33t-33 -13.5zM729 -10h-433v619h433v-619z" />
    <glyph glyph-name="youxiang" unicode="&#xe67d;" 
d="M975 386q0 25 -20 39l-406 297q-13 10 -29 10t-29 -10l-406 -297q-8 -5 -13 -15q-3 -2 -5 -5q-3 -6 -1 -13q0 -1 -0.5 -3t-0.5 -3v-493q0 -20 14.5 -34.5t34.5 -14.5h812q20 0 34.5 14.5t14.5 34.5v493zM513 693q3 2 7 2t7 -2l399 -292l-406 -232l-407 232zM934.5 -115.5
q-3.5 -3.5 -8.5 -3.5h-812q-5 0 -8.5 3.5t-3.5 8.5v472l409 -233q4 -2 9 -2t9 2l409 234v-473q0 -5 -3.5 -8.5z" />
    <glyph glyph-name="erweima" unicode="&#xe606;" 
d="M92 748h359q11 -1 17 -7.5t8.5 -21t3 -24t0 -30t-0.5 -25.5v-196q0 -8 0.5 -26t0.5 -27.5t-2 -22.5t-6.5 -20.5t-13 -11t-25 -4t-39.5 0.5t-28 1h-191q-7 0 -27 -0.5t-30 -0.5t-24 2.5t-21 9t-9 16.5v360q8 21 28 27v0v0zM141 667v-256h259v260h-258q-1 -1 -1 -4v0v0z
M574 748h360q23 -9 27 -32v-350q-5 -25 -25 -31q-11 -3 -26 -3t-35.5 1t-28.5 1h-185q-8 0 -29 -1t-37 -1t-26 3q-9 3 -14.5 11t-7 22t-2 24.5t0 30t0.5 26.5v184q0 8 -0.5 29t-0.5 31.5t2.5 24.5t9 21t17.5 9v0v0zM624 667v-256h259v260h-258q-2 -1 -1 -4v0v0zM259 592
q27 5 46 -10t20 -40q0 -31 -26 -46.5t-53 -2.5q-19 10 -25.5 32t4 42.5t34.5 24.5v0v0zM742 592q44 8 59 -29q13 -32 -9 -58q-18 -22 -50 -16q-26 4 -36 27.5t0 47t36 28.5v0v0zM449 -149h-356q-23 7 -29 29v358q7 21 24 26q11 3 26 3t35.5 -1t29.5 -1h184q8 0 28.5 1.5
t36.5 1t27 -3.5q9 -3 15 -10.5t8 -21.5t2 -24.5t-0.5 -30t-0.5 -26.5v-189q0 -7 0.5 -28t0 -30.5t-3 -23.5t-9.5 -20.5t-18 -8.5v0v0zM141 184v-255h259v259h-258q-1 0 -1 -4v0v0zM961 233v-100q-1 -8 -1 -53v-55h-257v58q-5 2 -38.5 1.5t-40.5 -0.5q-2 -19 -1.5 -115
t-0.5 -118h-47q-11 3 -18 10.5t-9.5 21.5t-2.5 24.5t0.5 30.5t0.5 29v184q0 8 -1 29t-0.5 37t3.5 26q1 5 4 9t9 6.5t10 4t13 2t13 0.5h15.5h14.5h175v-158h81q0 14 -0.5 79.5t1.5 78.5q20 1 37 0.5t28 -8.5t12 -24v0v0zM265 111q30 3 48.5 -20t7.5 -53q-10 -27 -39 -31.5
t-50 15t-12.5 52.5t45.5 37v0v0zM790 -149h-87v47.5t1 45.5h86v-93v0v0zM961 -56v-61q-5 -24 -29 -32h-61q0 9 -0.5 47.5t1.5 45.5h89v0v0zM961 -56z" />
    <glyph glyph-name="bangzhu" unicode="&#xe665;" 
d="M515 812q105 0 198 -40t162.5 -110t109.5 -163t40 -198q0 -106 -40 -199t-109.5 -162.5t-162.5 -109.5t-198 -40q-106 0 -199.5 40t-162.5 109.5t-109 162.5t-40 199q0 105 40 198t109 163t162.5 110t199.5 40v0zM547 -79q30 0 51.5 21t21.5 51q0 32 -21.5 53t-51.5 21
q-31 0 -52 -21t-21 -53q0 -30 21 -51t52 -21v0zM616 215q0 14 20.5 33.5t44.5 48.5t44.5 67.5t20.5 90.5q0 34 -13.5 72t-42.5 69.5t-75 52t-111 20.5q-76 0 -121 -26.5t-68 -64.5t-30 -78.5t-7 -68.5q0 -26 21.5 -37t47 -9.5t47 15.5t21.5 36q0 14 1.5 31.5t11 33t28 26
t50.5 10.5q51 0 80.5 -28t29.5 -66q0 -32 -21 -61t-46 -53.5t-46 -43.5t-21 -30v-79q0 -9 21 -14t46 -4.5t46 6t21 17.5v34v0zM616 215z" />
    <glyph glyph-name="guanji" unicode="&#xe695;" 
d="M664 677v-47q117 -46 189.5 -150.5t72.5 -234.5q0 -112 -55.5 -207.5t-151 -150.5t-207.5 -55t-207.5 55t-151 150.5t-55.5 207.5q0 130 72.5 234.5t189.5 150.5v47q-136 -48 -220.5 -166t-84.5 -266q0 -93 36 -177.5t97.5 -146t146 -97.5t177.5 -36t178 36t146 97.5
t97 146t36 177.5q0 148 -84.5 266t-220.5 166zM512 376q9 0 15.5 7.5t6.5 17.5v386q0 11 -6.5 18t-15.5 7t-15.5 -7t-6.5 -18v-386q0 -10 6.5 -17.5t15.5 -7.5z" />
    <glyph glyph-name="iconfontziliao" unicode="&#xe68a;" 
d="M213 715h598l56 -479l71 8l-63 537h-726l-63 -537l71 -8zM272 660h480v-60h-480v60zM272 540h480v-60h-480v60zM272 420h480v-60h-480v60zM272 300h480v-60h-480v60zM963 180h-901q-13 0 -19 -8.5t-2 -20.5l101 -303q4 -12 15.5 -20.5t24.5 -8.5h660q13 0 24.5 8.5
t15.5 20.5l101 303q4 12 -2 20.5t-18 8.5zM632 60h-240v60h240v-60z" />
    <glyph glyph-name="wifi" unicode="&#xe688;" 
d="M976 500q-87 101 -208.5 156t-256.5 55t-256.5 -55t-208.5 -156q-8 -9 -7.5 -21t10 -20.5t21.5 -7.5t20 10q79 91 189 141t232 50t232 -50t189 -141q9 -10 22 -10q11 0 19 7q10 9 10.5 21t-7.5 21zM511 544q-101 0 -191 -42.5t-153 -120.5q-8 -10 -7 -22t10.5 -20
t22 -6.5t19.5 10.5q55 68 133 105t166 37t166 -37t132 -105q9 -11 23 -11q11 0 19 7q9 8 10.5 20t-6.5 22q-63 78 -153 120.5t-191 42.5zM511 377q-68 0 -127 -31t-97 -86q-6 -11 -4 -23t12 -19q8 -5 17 -5q16 0 24 13q29 43 75.5 67.5t99.5 24.5q52 0 98 -24t75 -66
q7 -10 19 -12t22 5t12.5 19t-4.5 22q-38 54 -96.5 84.5t-125.5 30.5zM511 174q-24 0 -41.5 -17t-17.5 -41.5t17.5 -41.5t41.5 -17t41.5 17t17.5 41.5t-17.5 41.5t-41.5 17z" />
    <glyph glyph-name="time" unicode="&#xe60d;" 
d="M745 326h-176q-8 1 -13.5 6t-5.5 13v0v1v0.5v0.5v0v120q0 16 -11 27t-27 11q-15 0 -26 -11t-12 -26v-197q1 -8 6.5 -13.5t13.5 -6.5h253q14 2 23.5 12.5t9.5 24.5q0 15 -10 26t-25 12zM512 735q-91 0 -173.5 -35.5t-142.5 -95t-95.5 -142.5t-35.5 -174t35.5 -174
t95.5 -143t142.5 -95t173.5 -35t174 35t143 95t95.5 143t35.5 174t-35.5 174t-95.5 142.5t-143 95t-174 35.5zM512 -43q-90 0 -166 44t-120.5 120.5t-44.5 166.5t44.5 166.5t120.5 120.5t166 44t166.5 -44t121 -120.5t44.5 -166.5t-44.5 -166.5t-121 -120.5t-166.5 -44z" />
    <glyph glyph-name="tubiaozitihua03" unicode="&#xe79a;" 
d="M604 300l305 305q19 19 19 46t-19 46t-46 19t-46 -19l-305 -305l-305 305q-19 19 -46 19t-46 -19t-19 -46t19 -46l305 -305l-305 -305q-19 -19 -19 -46t19 -46t46 -19t46 19l305 305l305 -305q19 -19 46 -19t46 19t19 46t-19 46z" />
    <glyph glyph-name="iconshezhi01" unicode="&#xe689;" 
d="M513 147q-63 0 -107.5 45.5t-44.5 109.5t44.5 109.5t107.5 45.5t107.5 -45.5t44.5 -109.5q0 -12 -3 -28q-2 -9 -9.5 -14t-16 -3.5t-13.5 9t-4 16.5q2 12 2 20q0 46 -31.5 78.5t-76.5 32.5t-76.5 -32.5t-31.5 -78.5t31.5 -78.5t76.5 -32.5q8 0 19 2q9 2 16.5 -3.5t9 -14.5
t-3.5 -16.5t-14 -8.5q-15 -3 -27 -3zM370 -140q-3 0 -7 2q-82 29 -148 87q-10 10 -6 24q22 74 -15.5 140.5t-111.5 83.5q-14 3 -16 18q-9 44 -9 87t9 88q2 14 16 17q74 17 111.5 84t15.5 141q-4 14 6 23q66 58 148 88q14 4 23 -6q52 -57 127 -57t126 57q10 10 23 6
q83 -30 148 -88q11 -9 7 -23q-22 -74 15.5 -141t111.5 -84q14 -3 16 -17q8 -45 8 -88t-8 -87q-2 -15 -16 -18q-74 -17 -111.5 -83.5t-15.5 -140.5q4 -14 -7 -24q-65 -58 -148 -87q-13 -5 -23 6q-51 56 -126 56t-127 -56q-6 -8 -16 -8zM254 -26q50 -42 111 -66q63 61 148 61
q86 0 148 -61q60 24 111 66q-20 86 23 161.5t125 101.5q5 33 5 65t-5 66q-82 25 -125 101t-23 161q-51 42 -111 66q-62 -60 -148 -60q-85 0 -148 60q-61 -24 -111 -66q19 -85 -23.5 -161t-124.5 -101q-5 -34 -5 -66t5 -65q82 -26 125 -102t23 -161z" />
    <glyph glyph-name="erweima1" unicode="&#xe657;" 
d="M424 781v0h-220q-34 0 -58.5 -24t-24.5 -58v0v-208q0 -3 1 -7q5 -29 28 -49t54 -20h220v0q29 2 50.5 21.5t26.5 47.5q1 4 1 7v208v0q0 33 -23 56.5t-55 25.5zM458 503q0 -19 -13 -31.5t-31 -12.5h-206q-18 0 -30.5 12.5t-12.5 31.5v191q0 18 12.5 31t30.5 13h206
q18 0 31 -13t13 -31v-191zM902 701q0 32 -22 55t-54 25v0h-192q-33 0 -57 -23.5t-24 -56.5v0v-203q0 -3 1 -6q5 -29 27.5 -48.5t52.5 -19.5h192v0q28 2 49 21t26 47q1 3 1 6v203v0zM859 509q0 -17 -12.5 -29.5t-29.5 -12.5h-178q-18 0 -30.5 12.5t-12.5 29.5v187
q0 18 12.5 30.5t30.5 12.5h178q17 0 29.5 -12.5t12.5 -30.5v-187zM416 356v0h-214q-34 0 -57.5 -23.5t-23.5 -56.5v0v-202q0 -3 1 -7q5 -29 27.5 -48t52.5 -19h214v0q28 2 49 21t25 46q2 4 2 7v202v0q-1 32 -23 55t-53 25zM449 85q0 -18 -12.5 -30.5t-30.5 -12.5h-193v0h-7
q-18 0 -30.5 12.5t-12.5 30.5v186q0 18 12.5 30.5t30.5 12.5h200q18 0 30.5 -12.5t12.5 -30.5v-186zM721 143q-11 0 -19 -7.5t-8 -18.5v-51q0 -11 8 -18.5t19 -7.5t19 7.5t8 18.5v51q0 11 -8 18.5t-19 7.5zM835 169q-11 0 -19 -7.5t-8 -18.5v-77q0 -11 8 -18.5t19 -7.5
t18.5 7.5t7.5 18.5v77q0 11 -7.5 18.5t-18.5 7.5zM835 323q-11 0 -19 -7.5t-8 -18.5v-51q0 -11 8 -18.5t19 -7.5t18.5 7.5t7.5 18.5v51q0 11 -7.5 18.5t-18.5 7.5zM721 323q-11 0 -19 -7.5t-8 -18.5v-103q0 -10 8 -17.5t19 -7.5t19 7.5t8 17.5v103q0 11 -8 18.5t-19 7.5z
M606 194q-11 0 -19 -7.5t-8 -17.5v-103q0 -11 8 -18.5t19 -7.5t19 7.5t8 18.5v103q0 10 -8 17.5t-19 7.5zM606 323q-11 0 -19 -7.5t-8 -18.5v-26q0 -10 8 -17.5t19 -7.5t19 7.5t8 17.5v26q0 11 -8 18.5t-19 7.5z" />
    <glyph glyph-name="01" unicode="&#xe61c;" 
d="M189 465zM131 465q0 24 17 41t41 17t41 -17t17 -41t-17 -41t-41 -17t-41 17t-17 41zM304 490q-4 0 -7 -3t-3 -7v-31q0 -4 3 -7t7 -3h579q4 0 7 3t3 7v31q0 4 -3 7t-7 3h-579zM189 271zM131 271q0 24 17 41t41 17t41 -17t17 -41t-17 -41.5t-41 -17.5t-41 17.5t-17 41.5z
M294 255q0 -4 3 -7t7 -3h579q4 0 7 3t3 7v31q0 4 -3 7t-7 3h-579q-4 0 -7 -3t-3 -7v-31zM189 77zM131 77q0 24 17 41t41 17t41 -17t17 -41t-17 -41.5t-41 -17.5t-41 17.5t-17 41.5zM294 61q0 -4 3 -7t7 -3h579q4 0 7 3t3 7v31q0 4 -3 7t-7 3h-579q-4 0 -7 -3t-3 -7v-31z" />
    <glyph glyph-name="shouc01" unicode="&#xe652;" 
d="M955 383l-316 46l-142 286l-158 -305q3 -4 11.5 -12t12.5 -12l134 256l120 -243l268 -39l-194 -189l46 -267l-240 126l-240 -126l46 267l-194 189l148 20l-28 28l-190 -25l229 -223l-54 -315l283 148l283 -148l-54 315z" />
    <glyph glyph-name="iconfontweibowukuang" unicode="&#xe601;" 
d="M727 341q-16 3 -20.5 9.5t-0.5 11.5l3 4q1 3 3 7t6 15.5t4.5 22.5t-4.5 25.5t-16 25.5q-14 14 -37 18.5t-46 1t-44 -9t-33 -11.5l-13 -5q-10 -3 -17 -4.5t-10.5 0t-5.5 3.5t-2 7.5t1 9t3 12.5t3 14q0 15 -2.5 27.5t-11 27t-23 22t-41 7t-62.5 -12.5q-35 -12 -71.5 -36
t-64 -49.5t-50 -49.5t-34.5 -40l-12 -15q-33 -44 -48.5 -87.5t-16.5 -65t0 -21.5q6 -48 30 -86.5t57 -62t78.5 -40t86.5 -24.5t88 -11q76 -6 157 11.5t151 61t99 103.5q17 36 17.5 67t-10.5 51t-29.5 35t-34 22t-27.5 9v0zM415 28q-110 -5 -188 42.5t-78 119.5t77.5 124
t188.5 57q112 5 188.5 -37t76.5 -113q0 -73 -78 -130.5t-187 -62.5v0zM385 307q-30 -3 -53.5 -13.5t-37 -23.5t-22.5 -30t-12.5 -30.5t-4.5 -28t-0.5 -19.5t0.5 -8v0v-5t2 -11.5t5.5 -16.5t12 -17t19.5 -15q67 -32 126 -19.5t94 58.5q14 17 18.5 42t-2 50.5t-22.5 47
t-48.5 33t-74.5 6.5v0zM348 116q-20 -2 -35 8t-15 27q0 18 14 32.5t34 16.5q23 2 37.5 -9t14.5 -29q0 -16 -14.5 -30t-35.5 -16v0zM435 189q-7 -5 -14.5 -4.5t-11.5 6.5t-2 14.5t9 13.5q8 6 15.5 5t11.5 -7q3 -7 1 -15t-9 -13v0zM798 400q9 0 16 6t8 14v3q4 32 -1 57
t-16.5 39t-26.5 23t-30.5 11.5t-28.5 3t-21 -0.5l-8 -1q-10 0 -17 -7t-7 -17t7 -17t17 -7q32 6 50.5 0.5t26 -19.5t9 -28t0.5 -25l-2 -11q0 -10 7 -17t17 -7v0zM781 679q-51 12 -121 -1l-1.5 -1l-1.5 -1h-1q-11 -3 -18.5 -12.5t-7.5 -21.5q0 -14 10.5 -24.5t25.5 -10.5
q18 3 31 8q6 0 18.5 1.5t33.5 -3.5t42 -13t43 -26.5t37 -43.5q28 -60 11 -115q-7 -17 -7 -34q0 -14 10 -22.5t25 -8.5t23 5.5t11 23.5v0q19 57 14.5 102.5t-20 79t-43.5 58t-56 39t-58 21.5v0zM781 679z" />
    <glyph glyph-name="msnui-shops" unicode="&#xe6c8;" 
d="M785 425q26 -23 61 -28v-373q0 -13 -9 -22t-22 -9h-607q-13 0 -22 9t-9 22v372q35 6 61 28v-199h547v200zM833 712q6 0 13 -2v34q0 12 -9 21t-22 9h-607q-13 0 -22 -9t-9 -21v-35q8 3 14 3h642zM833 675h-642l-122 -131q0 -36 26 -62t63 -26q14 0 29 5h0.5h0.5l8 4h1
q5 3 8 5h1q17 11 27 28v0q3 4 5 9v0q8 18 8 37q0 -36 26 -62t63 -26t63 26t26 62q0 -36 26 -62t62.5 -26t62.5 26t26 62q0 -36 26 -62t62.5 -26t62.5 26t26 62q0 -22 11 -43l0.5 -0.5l0.5 -0.5q3 -5 5 -7l1 -2q3 -4 5 -6l0.5 -0.5l0.5 -0.5l7 -7v0q12 -10 27 -15v-1
q6 -2 10 -3v0q10 -2 21 -2q36 0 62 26t26 62z" />
    <glyph glyph-name="bianji" unicode="&#xe62f;" 
d="M652 750l-430 -431l225 -225l431 430zM96 -32l270 72l-194 193zM448 -160h128v128h-128v-128zM640 -160h128v128h-128v-128zM832 -32v-128h128v128h-128z" />
    <glyph glyph-name="yangguangjiage" unicode="&#xe635;" 
d="M614 522l-67 -124q-27 -51 -33 -67h-1q-18 40 -101 191h-63l118 -202h-97v-45h114v-62h-114v-45h114v-90h56v90h109v45h-109v62h109v45h-94l119 202h-60v0v0zM212 601q100 99 240 119q84 12 165 -9t149 -72t111 -123t55 -156q16 -114 -26.5 -218.5t-131 -175
t-202.5 -86.5q-150 -22 -280 57q-11 7 -14 19t3.5 23t19 14t22.5 -4q111 -68 241 -49q97 14 173 74t112.5 150t22.5 188q-11 72 -47.5 133.5t-94.5 105.5q-121 90 -270 69q-97 -14 -173.5 -74t-112.5 -150t-22 -188q11 -78 54 -144q6 -11 3.5 -23t-13 -19t-23 -4t-18.5 13
q-50 77 -63 169q-12 84 8.5 165t71.5 149q19 25 40 47v0v0v0zM212 601z" />
    <glyph glyph-name="xin" unicode="&#xe608;" 
d="M872 444q-17 65 -66 101.5t-118 36.5q-52 -1 -96.5 -31.5t-74.5 -85.5q-31 55 -77 86t-98 31q-69 -1 -116.5 -37t-64.5 -101q-7 -23 -7 -77v-3q0 -44 36.5 -104.5t82 -111t104.5 -105t85.5 -76t43.5 -34.5q5 -4 11 -4q9 0 14 7q5 6 4 13.5t-7 12.5q-43 33 -94 78.5
t-109 105t-96.5 119t-38.5 99.5v3q1 49 6 68q9 33 26.5 57t40 34.5t41.5 14.5t39 5v0q42 0 80 -27t63 -75q14 -24 31 -24v0q17 0 30 24q25 48 62 74.5t79 26.5h1q18 0 36 -3.5t41.5 -13.5t42.5 -34t28 -59q6 -20 6 -73q0 -50 -59.5 -131t-172.5 -181q-6 -5 -6 -12.5t5 -13.5
t12.5 -6t12.5 5q245 219 244 341q0 56 -7 80z" />
    <glyph glyph-name="qq" unicode="&#xe63a;" 
d="M512 747q-91 0 -173.5 -35.5t-142.5 -95.5t-95.5 -142.5t-35.5 -173.5t35.5 -174t95.5 -142.5t142.5 -95t173.5 -35.5t174 35.5t142.5 95t95 142.5t35.5 174t-35.5 173.5t-95 142.5t-142.5 95.5t-174 35.5v0zM758 161q-9 -8 -22.5 -0.5t-27.5 27.5q-12 -33 -32 -61
q44 -16 44 -42q0 -22 -33.5 -37.5t-81.5 -15.5q-58 0 -93 21q-34 -21 -92 -21q-48 0 -82 15.5t-34 37.5q0 26 45 42q-20 27 -32 61q-15 -20 -28 -27.5t-22 0.5q-12 11 -8 45t21 71q8 17 17 31q3 108 65.5 184t149.5 76h1q87 0 149.5 -76t64.5 -184q10 -14 17 -31
q18 -37 22 -71t-8 -45v0zM758 161z" />
    <glyph glyph-name="zhinan" unicode="&#xe66a;" 
d="M846 571h-611q-36 0 -62 26t-26 62.5t26 62.5t62 26h525q11 0 19 -8t8 -19.5t-8 -19.5t-19 -8h-525q-14 0 -23.5 -10t-9.5 -23.5t9.5 -23.5t23.5 -10h611q11 0 19 -8t8 -19.5t-8 -19.5t-19 -8zM846 -148h-611q-36 0 -62 26t-26 63q0 11 8 19t19.5 8t19.5 -8t8 -19
q0 -14 9.5 -24t23.5 -10h611q11 0 19 -8t8 -19.5t-8 -19.5t-19 -8zM174.5 -87q-11.5 0 -19.5 8t-8 20v719q0 11 8 19t19.5 8t19.5 -8t8 -19v-719q0 -12 -8 -20t-19.5 -8zM845.5 -148q-11.5 0 -19.5 8t-8 20v719q0 11 8 19t19.5 8t19.5 -8t8 -19v-719q0 -12 -8 -20t-19.5 -8z
M759.5 571q-11.5 0 -19.5 8t-8 20v121q0 12 8 20t19.5 8t19.5 -8t8 -20v-121q0 -12 -8 -20t-19.5 -8zM669 393h-330q-12 0 -20 8t-8 19.5t8 19.5t20 8h330q12 0 20 -8t8 -19.5t-8 -19.5t-20 -8zM510 268h-171q-12 0 -20 8t-8 19.5t8 19.5t20 8h171q11 0 19 -8t8 -19.5
t-8 -19.5t-19 -8z" />
    <glyph glyph-name="phone" unicode="&#xe67f;" 
d="M295 688q34 0 60 -28q15 -16 39 -44q24 -26 22 -58.5t-28 -56.5l-13 -11q-30 -27 -45 -39q-42 -34 -33 -89t46 -112q67 -102 160 -157q20 -12 61 -26q14 -5 29 -5q33 0 60 25q17 17 53 48l5 4q27 23 57 23q35 0 62 -29q23 -25 39 -43q23 -27 21.5 -58t-27.5 -55l-6 -6
q-41 -47 -103 -76q-19 -7 -41 -7q-27 0 -63 10q-123 35 -247 146q-160 143 -234 314q-41 97 -34 171q5 51 41 81q13 11 38 34q17 15 25 22q26 22 56 22zM295 735q-48 0 -87 -34q-7 -6 -28.5 -25t-33.5 -29q-52 -43 -58 -113q-9 -87 38 -194q77 -181 245 -331
q133 -119 266 -156q43 -12 76 -12q32 0 59 10q19 9 37 20t30.5 20t23.5 18.5t17 16t10.5 11.5t4.5 6q40 37 42.5 87t-32.5 91q-17 19 -40 44q-42 45 -97 45q-48 0 -88 -35q-43 -37 -60 -54q-13 -12 -27 -12q-7 0 -14 3q-36 12 -52 22q-83 49 -144 142q-32 49 -39 94
q-5 28 15 43q14 11 60 53q41 37 44 89t-33 93q-25 28 -41 45q-40 42 -94 42v0z" />
    <glyph glyph-name="icon61" unicode="&#xe63e;" 
d="M900 328l-361 319q-8 7 -19.5 7t-20.5 -7l-361 -319q-16 -14 -8.5 -34t29.5 -20h58v-171q0 -55 39 -94t94 -39h229h2q33 1 56.5 25t23.5 57v149q0 33 -24 57t-58 24h-120q-33 0 -57.5 -24t-24.5 -57v-96q0 -13 9 -22t22 -9t22 9t9 22v96q0 8 6 14t14 6h120q8 0 14 -6
t6 -14v-149q0 -8 -6 -14t-14 -6h-229q-29 0 -50 21t-21 50v202q0 12 -9 21t-22 9h-8l279 248l280 -248h-9q-12 0 -21 -9t-9 -21v-202q0 -39 -34 -60q-11 -7 -13.5 -19.5t4 -23t19 -13.5t23.5 4q29 18 45.5 48t16.5 64v171h59q21 0 28.5 20t-8.5 34z" />
    <glyph glyph-name="icon31" unicode="&#xe6c2;" 
d="M517 431h-293v59h-160v-160h60v-295h-62v-160h160v56h295v-56h160v160h-63v295h63v160h-160v-59zM94 360v100h100v-100h-100zM192 -95h-100v100h100v-100zM517 -19h-295v54h-62v295h64v58h293l-1 -58h62v-295h-61v-54v0zM647 5v-100h-100v100h100zM547 460h100v-100h-100
v100zM692 732v-860h280v860h-280zM942 194h-110v-39h110v-56h-110v-40h110v-51h-110v-39h110v-65h-220v797h220v-54h-110v-40h110v-52h-110v-40h110v-48h-110v-40h110v-54h-110v-37h110v-60h-110v12v-50h110v-44z" />
    <glyph glyph-name="huanyingye" unicode="&#xe684;" 
d="M820 831h-616q-46 0 -79 -33t-33 -79v-672q0 -46 33 -79t79 -33h616q46 0 79 33t33 79v672q0 46 -33 79t-79 33zM876 75q0 -34 -24.5 -59t-59.5 -25h-560q-34 0 -59 24.5t-25 59.5v616q0 35 25 59.5t59 24.5h560q35 0 59.5 -24.5t24.5 -59.5v-616zM540 411h-196v168h-56
v-392h56v168h196v-168h56v392h-56v-168zM680 467h56v-280h-56v280zM680 579h56v-84h-56v84z" />
    <glyph glyph-name="iconfontcolor32" unicode="&#xe690;" horiz-adv-x="1025" 
d="M912 -100q0 -27 -18.5 -45.5t-45.5 -18.5h-736q-27 0 -45.5 18.5t-18.5 45.5v736q0 27 18.5 45.5t45.5 18.5h416q2 0 5.5 1t9 7t5.5 16q0 11 -5 17t-10 6l-5 1h-464q-27 0 -45.5 -18.5t-18.5 -45.5v-832q0 -27 18.5 -45.5t45.5 -18.5h832q27 0 45.5 18.5t18.5 45.5v464
q0 2 -1 5.5t-7 9t-16 5.5t-16 -5t-7 -10l-1 -5v-416zM125 60q-7 -7 -7 -17v-113q0 -10 7 -17t17 -7h113q10 0 17 7l600 600l-147 147zM804 739l148 -147l-35 -34l-147 147zM1005 737l-56 56q-19 19 -45.5 19t-45.5 -19l-9 -9l147 -147l9 9q19 19 19 45.5t-19 45.5z" />
    <glyph glyph-name="renmai" unicode="&#xe643;" 
d="M641 445q0 -85 -60 -145t-145 -60t-145 60t-60 145t60 145t145 60t145 -60t60 -145zM436 615q-70 0 -120 -50t-50 -120.5t50 -120t120 -49.5t120 49.5t50 120t-50 120.5t-120 50zM101 -63q1 5 2.5 13t10 31.5t20.5 45.5t34 51.5t49.5 53t69.5 45.5t91 33q201 29 323 -118
l5.5 -7.5t9.5 -13.5t11 -17t13 -23t13 -26.5t13 -31.5t11 -36q1 0 6 -2.5t8.5 -3t9 2.5t10.5 12q0 12 -7.5 39.5t-32.5 73t-62 81.5l-3 3q-10 10 -18.5 18t-32 24t-46.5 27t-59.5 21.5t-74 12.5t-87 -5.5t-101.5 -27.5q-23 -11 -43 -23.5t-52 -40t-65.5 -75t-63.5 -109.5
q-7 -25 8 -30q1 0 5 -1.5t6.5 -1.5t7.5 1t11 4zM573 638q6 -1 15.5 -3t36 -11t49.5 -22t49 -38.5t42 -57.5q2 -7 5 -18.5t3 -38t-8 -53.5t-32.5 -63.5t-63.5 -70.5q-3 -6 -4.5 -9.5t-1 -10.5t10 -12t27.5 -8q6 0 25 -8.5t50.5 -29.5t60 -50t51 -78t25.5 -105q30 -17 45 11
q0 8 -8 34.5t-27.5 67.5t-45.5 79t-67.5 68.5t-89.5 37.5q119 146 74 285q-5 10 -15.5 23.5t-34 37.5t-64.5 44.5t-90 31.5q-14 0 -22.5 -9t5.5 -24z" />
    <glyph glyph-name="icontouzi" unicode="&#xe658;" 
d="M509 383zM493 383h33v-404h-33v404zM309 387zM309 402h405v-30h-405v30zM309 218zM309 233h405v-30h-405v30zM441 385zM377 520l77 -127l-27 -16l-77 127zM582 385zM646 520l27 -16l-77 -127l-27 16zM510 -160q-93 0 -179 37q-83 37 -144.5 102.5t-92.5 144.5t-30 169
t37 174q36 82 99.5 143t147 94t172 31t170.5 -38q89 -38 153 -109l-24 -21q-59 65 -141 101q-78 34 -161.5 35t-157 -28t-134.5 -86.5t-95 -134.5t-34.5 -161t28 -157.5t86 -134.5t134.5 -95t161 -34.5t157.5 28t134.5 86t95 134.5q24 56 32 115l31 -4q-8 -64 -34 -123
q-54 -124 -166.5 -196t-244.5 -72z" />
    <glyph glyph-name="msnui-task" unicode="&#xe759;" 
d="M338 302l97 -98q12 -11 28 -11t28 11l195 196q12 11 12 27.5t-11.5 28t-27.5 11.5t-28 -12l-168 -168l-70 70q-12 12 -28 12t-27.5 -11.5t-11.5 -27.5t12 -28zM865 768h-172q10 -14 10 -31.5t-10 -31.5h140v-705h-642v705h139q-10 14 -10 31.5t10 31.5h-171q-13 0 -22 -9
t-9 -22v-768q0 -13 9 -22.5t22 -9.5h706q13 0 22 9.5t9 22.5v768q0 13 -9 22t-22 9zM445 640h132q25 0 43 18t18 43v6q0 25 -18 43t-43 18h-3q3 8 3 17q0 19 -13 32.5t-33 13.5h-38q-20 0 -33 -13.5t-13 -32.5q0 -9 3 -17h-5q-26 0 -44 -18t-18 -43v-6q0 -25 18 -43t44 -18z
" />
    <glyph glyph-name="ku" unicode="&#xe7d7;" 
d="M85 529h165v-51h-165v51zM85 339h165v-51h-165v51zM889 757h-722q-15 0 -29.5 -10.5t-14.5 -34.5v-120h51v114h709v-823h-709v152h-51v-159q0 -15 10.5 -29.5t33.5 -14.5h722q24 0 34.5 14.5t10.5 29.5v836q0 24 -14.5 34.5t-30.5 10.5zM311 83q-6 -10 -2.5 -20.5
t12.5 -15.5q6 -4 13 -4q16 0 24 14q26 48 72 76.5t100 30.5l6 -1l5 1q54 -2 100.5 -30.5t72.5 -76.5q5 -9 16 -12t20 2q10 5 13 15.5t-2 20.5q-42 77 -121 112q15 10 28 23q55 55 55 133t-55 133t-132.5 55t-132 -55t-54.5 -133t55 -133q13 -13 28 -23q-80 -35 -121 -112z
M402 351q0 55 39.5 94.5t94.5 39.5t94 -39.5t39 -94.5q0 -54 -37 -92.5t-91 -41.5h-5h-6q-53 3 -90.5 41.5t-37.5 92.5zM85 149h165v-51h-165v51z" />
    <glyph glyph-name="fuzhuangdapei" unicode="&#xe629;" 
d="M910 602l-212 60q-13 3 -24.5 -4t-13.5 -20q-9 -55 -51 -90t-97 -35q-33 0 -74 25q-11 7 -23 4t-18.5 -13.5t-3.5 -22.5t13 -19q57 -34 106 -34q68 0 123 39.5t76 103.5l161 -46v-211l-114 23q-14 3 -25 -6t-11 -23v-331q0 -12 -8.5 -21t-21.5 -9h-360q-13 0 -21.5 9
t-8.5 21v361q0 14 -11 23t-25 6l-114 -23v181l188 54q12 3 18 14t2.5 23t-14 18t-22.5 3l-211 -60q-21 -7 -21 -29v-240q0 -15 11 -24t25 -6l114 23v-324q0 -37 26.5 -63.5t63.5 -26.5h360q37 0 63.5 26.5t26.5 63.5v294l114 -23q14 -3 25 6.5t11 23.5v270q0 10 -6 18
t-16 11zM332 62.5q0 -12.5 8.5 -21.5t21.5 -9h300q12 0 21 9t9 21.5t-9 21t-21 8.5h-300q-13 0 -21.5 -8.5t-8.5 -21z" />
    <glyph glyph-name="dingwei" unicode="&#xe680;" 
d="M515 -167q-21 0 -79.5 72t-118.5 167.5t-107 198t-47 154.5q0 97 47 178.5t128.5 129t177 47.5t177 -47.5t128.5 -129t47 -178.5q0 -51 -47 -153.5t-107.5 -198t-119 -168t-79.5 -72.5zM515.5 740q-129.5 0 -221 -92t-91.5 -221q0 -47 41.5 -138.5t95 -178t105 -151.5
t70.5 -65t70.5 65.5t105 152t95 178t41.5 137.5q0 129 -91 221t-220.5 92zM515.5 277q-60.5 0 -104 43.5t-43.5 104.5t43.5 104.5t104 43.5t103.5 -43.5t43 -104.5t-43 -104.5t-103.5 -43.5zM515.5 521q-38.5 0 -66 -27.5t-27.5 -66.5t27.5 -66.5t66 -27.5t66 27.5
t27.5 66.5t-27.5 66.5t-66 27.5z" />
    <glyph glyph-name="password" unicode="&#xe686;" 
d="M854 450h-91q0 110 -74 184.5t-181 74.5t-181 -74.5t-74 -184.5h-91q0 88 46 168.5t126.5 131t173 50.5t173.5 -50.5t127 -131t46 -168.5v0zM970 300q0 38 -27 65t-65 27h-730q-38 0 -65 -27t-27 -65v-433q0 -38 27 -64.5t65 -26.5h730q38 0 65 26.5t27 64.5v433v0z
M585 -38q0 -29 -20 -49t-48 -20h-10q-28 0 -48 20t-20 49v185q0 29 20 49t48 20h10q28 0 48 -20t20 -49v-185zM585 -38z" />
    <glyph glyph-name="iconnav2" unicode="&#xe627;" horiz-adv-x="1025" 
d="M1 672h158v-129h-158v129zM257 672h768v-129h-768v129zM1 352h158v-128h-158v128zM257 352h640v-128h-640v128zM1 33h158v-129h-158v129zM257 33h704v-129h-704v129z" />
    <glyph glyph-name="shouji" unicode="&#xe638;" 
d="M394.5 16q-19.5 0 -33.5 -14t-14 -34t14 -34t33.5 -14t33.5 14t14 34t-14 34t-33.5 14zM631 770h-474q-29 0 -50.5 -21t-21.5 -51v-796q0 -30 21.5 -51t50.5 -21h474q30 0 51.5 21t21.5 51v796q0 30 -21.5 51t-51.5 21zM157 722h474q10 0 17 -7t7 -17v-596h-522v596
q0 10 7 17t17 7zM631 -122h-474q-10 0 -17 7t-7 17v148h522v-148q0 -10 -7 -17t-17 -7z" />
    <glyph glyph-name="wode" unicode="&#xe62a;" 
d="M956 -111q2 -7 2 -13q0 -18 -13 -31t-31.5 -13t-31.5 13t-13 31v0h-1q-9 141 -111.5 238t-244.5 97t-244.5 -97t-111.5 -238h-1v0q0 -18 -13 -31t-31.5 -13t-31.5 13t-13 31q0 6 2 12q9 126 82.5 227t186.5 150q-53 38 -84 97t-31 128q0 115 82 196.5t197 81.5t197 -81.5
t82 -196.5q0 -66 -29 -123.5t-79 -96.5q119 -46 196.5 -148.5t87.5 -232.5zM690 489.5q0 78.5 -55.5 134t-134 55.5t-134 -55.5t-55.5 -134t55.5 -134t134 -55.5t134 55.5t55.5 134z" />
    <glyph glyph-name="shezhihuanyingye" unicode="&#xe66d;" 
d="M211 -54q-45 0 -77 32t-32 78v656q0 46 32 78t77 32h602q45 0 77 -32t32 -78v-656q0 -46 -32 -78t-77 -32h-602v0zM868 83v602q0 34 -24 58t-58 24h-548q-34 0 -58 -24t-24 -58v-602q0 -34 24 -58t58 -24h548q34 0 58 24t24 58zM690 193q-6 0 -10 4t-4 9v246q0 6 4 10
t10 4h27q6 0 10 -4t4 -10v-246q0 -5 -4 -9t-10 -4h-27zM690 493q-6 0 -10 4t-4 10v55q0 5 4 9t10 4h27q6 0 10 -4t4 -9v-55q0 -6 -4 -10t-10 -4h-27zM553 193q-6 0 -10 4t-4 9v151h-191v-151q0 -5 -4 -9t-10 -4h-27q-6 0 -10 4t-4 9v164v28v164q0 5 4 9t10 4h27q6 0 10 -4
t4 -9v-151h191v151q0 5 4 9t10 4h27q6 0 10 -4t4 -9v-356q0 -5 -4 -9t-10 -4h-27z" />
    <glyph glyph-name="jinlingyingcaiwangtubiao09" unicode="&#xe70c;" 
d="M435.5 429q-14.5 -7 -24 -20t-12.5 -32t6 -34q8 -14 25 -22t41 -13l21 -4v137q-19 -1 -30.5 -3t-26 -9zM609.5 242q-12.5 11 -43.5 13l-30 3v-147q16 1 30 4q14 2 30 12t24 24t9.5 31t-3 33t-17 27zM508.5 746q-93.5 0 -179 -36.5t-147 -98t-98 -147t-36.5 -179
t36.5 -179t98 -147t147 -98t179 -36.5t179 36.5t147 98t98 147t36.5 179t-36.5 179t-98 147t-147 98t-179 36.5zM675 176q-2 -24 -15 -45t-38 -37t-46 -19l-40 -7v-13q0 -7 -4 -13t-16 -7t-18 5.5t-6 13.5v16q-22 5 -41 10q-18 6 -38.5 17.5t-33.5 25.5q-14 13 -24.5 30.5
t-10.5 33.5t11 22.5t18.5 -1t13 -22.5t19 -28t30.5 -23t27 -13l29 -8v149q-25 4 -41 7q-16 4 -37 13q-21 8 -35 21t-20.5 32.5t-3.5 43.5q4 31 26.5 62.5t84.5 37.5l26 3q-1 7 0 13t8 11.5t22 2t14 -18.5v-7q22 -4 38 -8.5t34.5 -17t29 -27.5t20.5 -34t8.5 -30.5t-11 -17
t-19 0t-15.5 17.5l-12 28q-9 16 -24.5 28t-28.5 14l-20 3v-140q37 -5 57 -10q21 -5 36.5 -14.5t26 -23t16 -33t3.5 -43.5v0z" />
    <glyph glyph-name="jinlingyingcaiwangtubiao84" unicode="&#xe779;" 
d="M512 747q-94 0 -174 -46.5t-127 -126.5t-47 -174q0 -117 71 -210l262 -354q5 -7 15 -7v0q10 0 15 7l274 370q59 88 59 194q0 94 -47 174t-127 126.5t-174 46.5zM770 229l-258 -349l-247 333q-62 83 -62 187q0 128 90.5 218.5t218.5 90.5t218.5 -90.5t90.5 -218.5
q0 -94 -51 -171zM512 529q-53 0 -91 -38t-38 -91.5t38 -91t91 -37.5t91 37.5t38 91t-38 91.5t-91 38zM512 309q-37 0 -64 26.5t-27 64t27 64t64 26.5t64 -26.5t27 -64t-27 -64t-64 -26.5z" />
    <glyph glyph-name="kecheng" unicode="&#xe60e;" 
d="M64 31h156v422h-156v-422zM64 -70q0 -22 14.5 -37t36.5 -15h54q22 0 36.5 15t14.5 37v49h-156v-49zM169 614h-54q-22 0 -36.5 -15.5t-14.5 -37.5v-55l156 2v53q0 22 -14.5 37.5t-36.5 15.5zM276 -70q0 -22 13.5 -37t34.5 -15h109q22 0 37.5 15.5t15.5 36.5v48h-210v-48z
M276 34l210 -1v527h-210v-526zM433 722h-109q-21 0 -34.5 -15.5t-13.5 -37.5v-55l210 -2v57q0 22 -15.5 37.5t-37.5 15.5zM749 613h-159q-22 0 -37.5 -15.5t-15.5 -37.5v-631q0 -22 15.5 -37.5t37.5 -15.5h159q22 0 37.5 15.5t15.5 37.5v631q0 22 -15.5 37.5t-37.5 15.5z
M855 86l105 3v153l-105 -1v-155zM855 -73q0 -23 13 -37t35 -14h8q22 0 35.5 15.5t13.5 37.5v104l-105 -2v-104zM911 456h-8q-21 0 -34.5 -16t-13.5 -39v-103h105v106q0 22 -13.5 37t-35.5 15z" />
    <glyph glyph-name="location" unicode="&#xe62c;" 
d="M512 -160q-14 15 -36.5 41.5t-80.5 101t-102 141.5t-80.5 145.5t-36.5 130.5q0 91 45 168.5t122.5 122.5t168.5 45t168.5 -45t122.5 -122.5t45 -168.5q0 -52 -35.5 -129.5t-83 -148t-100 -138.5t-82.5 -103.5t-35 -40.5zM512 527q-53 0 -90 -37.5t-37 -90t37 -89.5
t90 -37t90 37t37 89.5t-37 90t-90 37.5z" />
    <glyph glyph-name="iconshezhi011" unicode="&#xe68b;" 
d="M959 178q2 -11 -1 -27.5t-9.5 -33.5t-16.5 -30.5t-21.5 -19t-20 -5.5t-19.5 4q-9 3 -23.5 5t-29.5 0.5t-30 -6t-25 -16.5q-23 -24 -27 -54.5t8 -58.5q10 -19 -2 -39q-6 -7 -18.5 -15.5t-27.5 -15t-31.5 -10.5t-28.5 -4q-9 0 -16.5 7t-10.5 14h-1q-11 30 -36.5 51.5
t-58.5 21.5t-59.5 -21.5t-37.5 -50.5q-4 -11 -14 -16.5t-21 -5.5q-14 0 -30.5 5t-33.5 12t-30.5 16.5t-20.5 19.5q-4 7 -4.5 16t6.5 25q11 23 8.5 51t-24.5 52q-13 15 -32.5 19t-36.5 3q-20 -1 -42 -7q-13 -4 -26 2q-11 3 -20 17t-16.5 31t-11 35t-2.5 29q3 21 20 27
q29 12 52 38.5t23 58.5q0 34 -23 59t-52 36q-9 3 -15 14t-6 23t4 27.5t10.5 30t14.5 26.5t18 18q7 5 14.5 4t15.5 -4q29 -12 60.5 -7.5t55.5 27.5q11 12 16.5 28.5t7 33t0 30t-2.5 19.5q-2 6 -3.5 13.5t1.5 13.5q6 13 21 23t32 17t33.5 10.5t26.5 3.5q12 0 19.5 -8.5
t9.5 -16.5q11 -26 35 -46t57 -20t59 19t37 47q4 8 12 16.5t17 8.5q13 0 29 -4t31.5 -11t28.5 -17.5t20 -22.5q5 -8 3 -17t-4 -13q-12 -28 -7 -59t28 -54t56.5 -25.5t62.5 11.5q8 5 19 4t18 -9q15 -13 26 -40.5t15 -55.5q2 -16 -5.5 -25.5t-14.5 -12.5q-30 -10 -51 -36.5
t-21 -60.5q0 -32 17.5 -56.5t46.5 -35.5q7 -4 11 -8q11 -8 15 -22v0zM512 92q43 0 81.5 16t67 45t44.5 67t16 81.5t-16 81.5t-44.5 66t-67 44.5t-82 16.5t-81.5 -16.5t-66 -44.5t-44.5 -66t-16.5 -81.5t16.5 -81.5t44.5 -67t66 -45t82 -16v0zM512 92z" />
    <glyph glyph-name="icon" unicode="&#xe64d;" 
d="M103 644q-13 -15 -23 -44t-11.5 -83.5t15 -116.5t69.5 -148.5t138 -174.5q66 -67 130.5 -115t116 -72t100 -35.5t83.5 -10.5t65 9t46.5 17t25.5 19l-252 251q-2 -1 -5 -5q-13 -13 -20.5 -18t-21.5 -8t-32 6t-43 29q-87 71 -154 154q-11 14 -14.5 25.5t1.5 23t11 18.5
t20 21l6 6zM197 738l-63 -63l252 -251l63 63q13 13 13 31t-13 32l-189 188q-13 13 -31.5 13t-31.5 -13zM701 235l-63 -63l251 -252l63 63q13 13 13 31.5t-13 31.5l-189 189q-13 13 -31 13t-31 -13z" />
    <glyph glyph-name="circle" unicode="&#xe63d;" 
d="M462 709q-17 6 -39 6.5t-36 -2t-39.5 -7.5t-32.5 -7q52 37 133 45.5t158 -6.5t145 -44.5t101 -65.5q55 -59 77 -148.5t11 -179t-49.5 -174t-97.5 -136.5q-55 -48 -131 -89.5t-142 -46.5q-98 -8 -184 26t-143 95q-42 46 -76 120t-36 138q-2 85 28 166.5t82.5 144
t123 106.5t147.5 59v0zM618 687q11 -6 51 -22.5t62 -32t27 -37.5q-14 6 -73.5 40.5t-99.5 41.5q-82 15 -162.5 -13.5t-139.5 -85.5t-99 -133.5t-47 -155.5q-9 -88 29 -169t97 -131q51 -44 129.5 -67.5t159.5 -10.5q46 7 107 43t108 78q47 43 79 108.5t43 137t0.5 144.5
t-41.5 131t-90.5 95t-139.5 39v0v0z" />
    <glyph glyph-name="shape3" unicode="&#xe664;" 
d="M841 239l-302 -449q-10 -14 -27 -14v0q-17 0 -26 14l-302 448q-56 89 -56 192q0 100 51.5 185.5t140 135t192.5 49.5t192.5 -49.5t140 -135t51.5 -185.5q0 -103 -55 -191zM512 736q-87 0 -160.5 -41t-116.5 -111.5t-43 -153.5q0 -85 46 -158l274 -407l275 409
q45 71 45 156q0 83 -43 153.5t-116.5 111.5t-160.5 41zM512 255q-75 0 -128.5 52t-53.5 124.5t53.5 124t128.5 51.5t128.5 -51.5t53.5 -124t-53.5 -124.5t-128.5 -52zM512 543q-49 0 -83.5 -32.5t-34.5 -79t34.5 -79.5t83.5 -33t83.5 33t34.5 79.5t-34.5 79t-83.5 32.5z" />
    <glyph glyph-name="camera" unicode="&#xe696;" 
d="M513 448q-76 0 -130 -54t-54 -130t54 -130t130 -54t130 54t54 130t-54 130t-130 54zM512.5 133q-54.5 0 -93 38.5t-38.5 93t38.5 93t93 38.5t93 -38.5t38.5 -93t-38.5 -93t-93 -38.5zM854 527h-104q-11 0 -31.5 26.5t-41.5 52.5t-33 26h-263q-12 0 -33 -26t-41.5 -52.5
t-31.5 -26.5h-104q-32 0 -55.5 -23t-23.5 -56v-420q0 -33 23.5 -56t55.5 -23h683q33 0 56 23t23 56v420q0 33 -23 56t-56 23zM881 54q0 -22 -15.5 -37.5t-37.5 -15.5h-631q-21 0 -36.5 15.5t-15.5 37.5v368q0 22 15.5 37t36.5 15h105q10 0 30.5 26.5t41.5 53t33 26.5h210
q11 0 32.5 -26.5t41.5 -53t30 -26.5h107q22 0 37.5 -15t15.5 -37v-368z" />
    <glyph glyph-name="youxiang1" unicode="&#xe681;" 
d="M896 -116h-768q-53 0 -90.5 37.5t-37.5 90.5v576q0 53 37.5 90.5t90.5 37.5h768q53 0 90.5 -37.5t37.5 -90.5v-576q0 -53 -37.5 -90.5t-90.5 -37.5v0zM160 652l352 -306l352 306h-704v0zM960 588q0 27 -20 47l-428 -367l-428 367q-20 -20 -20 -47v-576q0 -26 18.5 -45
t45.5 -19h768q26 0 45 19t19 45v576v0z" />
    <glyph glyph-name="3" unicode="&#xe63b;" 
d="M350 434q-13 0 -23.5 -8t-10.5 -20t10.5 -20t23.5 -8q12 0 20 7.5t8 20t-8 20.5t-20 8zM613 261q-10 0 -18.5 -8.5t-8.5 -19t8.5 -19t18.5 -8.5q15 0 24.5 8.5t9.5 19t-9.5 19t-24.5 8.5zM504 378q12 0 20 7.5t8 20t-8 20.5t-20 8q-13 0 -23.5 -8t-10.5 -20t10.5 -20
t23.5 -8zM512 752q-92 0 -175.5 -36t-144 -96t-96 -143.5t-35.5 -175.5t35.5 -175.5t96 -144t144 -96t175.5 -35.5t175.5 35.5t144 96t96 144t35.5 175.5t-35.5 175.5t-96 143.5t-144 96t-175.5 36zM421 153q-21 0 -77 11l-77 -39l22 66q-88 62 -88 149q0 78 64.5 132.5
t155.5 54.5q81 0 144.5 -44t77.5 -111q-11 2 -21 2q-78 0 -132.5 -51t-54.5 -123q0 -23 6 -47h-20zM778 62l17 -55l-60 33q-44 -11 -66 -11q-79 0 -133.5 47t-54.5 113t54.5 113t133.5 47q74 0 130.5 -47.5t56.5 -112.5q0 -69 -78 -127zM734 261q-10 0 -18.5 -9t-8.5 -19
t8.5 -18.5t18.5 -8.5q15 0 24.5 8.5t9.5 19t-9.5 19t-24.5 8.5z" />
    <glyph glyph-name="shijian" unicode="&#xe653;" 
d="M818 263h-312v315q0 6 -4.5 10.5t-11 4.5t-11 -4.5t-4.5 -10.5v-328v-0.5v-0.5v-0.5v-0.5q0 -7 4.5 -11.5t10.5 -4.5h328q7 0 11.5 4.5t4.5 11t-4.5 11t-11.5 4.5zM760 -118q-115 -70 -248 -70q-97 0 -185 37.5t-152 101.5t-101.5 152t-37.5 185t37.5 185t101.5 152
t152 101.5t185 37.5t185 -37.5t152 -101.5t101.5 -152t37.5 -185q0 -152 -89 -277l18 -23q99 134 99 300q0 103 -40 196t-107.5 160.5t-160.5 107.5t-196 40t-196 -40t-160.5 -107.5t-107.5 -160.5t-40 -196t40 -196t107.5 -160.5t160.5 -107.5t196 -40q143 0 265 76z
M753 -130q0 -6 4 -10.5t10 -4.5t10 4.5t4 10.5v0q0 6 -4 10t-10 4t-10 -4t-4 -10v0zM894 1q0 -6 4 -10.5t10 -4.5t10.5 4.5t4.5 10.5t-4.5 10t-10.5 4t-10 -4t-4 -10z" />
    <glyph glyph-name="xiangzuo01" unicode="&#xe620;" 
d="M294 -89zM347 294l369 380q6 6 5.5 13.5t-5.5 12.5l-1 1q-5 5 -12.5 5t-13.5 -6l-395 -407v0v0v0v0l395 -395q6 -6 13.5 -6t12.5 6h1q5 5 5 13t-5 13z" />
    <glyph glyph-name="dianhua1" unicode="&#xe698;" 
d="M902 -28q-3 -3 -10 -12.5t-23.5 -29t-33 -35.5t-35 -28.5t-32.5 -12.5h-1q-166 6 -409.5 249t-248.5 409q0 14 12 33t28 35.5t35.5 33t29 24t13.5 9.5q21 15 45 13t36 -19q6 -8 52.5 -79t55.5 -84q16 -26 -4 -65q-8 -14 -40 -72q34 -48 105 -119t119 -105q56 32 71 40
q39 21 65 4q12 -7 82.5 -54t81.5 -54q16 -11 18.5 -33.5t-12.5 -47.5zM873 20q-10 7 -80.5 53.5t-81.5 53.5q-1 1 -4 1q-9 0 -21 -6q-12 -7 -81 -46l-10 -5l-10 5q-47 28 -137 118t-117 137l-6 10l6 10q27 45 45 81q10 18 6 24q-8 13 -54.5 83.5t-52.5 78.5q-2 2 -8 2
q-9 0 -17 -6q-30 -20 -65 -54.5t-36 -46.5q5 -150 237 -382t382 -237v0q12 2 46 36.5t55 64.5q4 6 5 12t0.5 9t-1.5 4zM649.5 575q-33.5 33 -81 33t-80.5 -33l-25 24q44 44 106 44t105.5 -43.5t43.5 -104.5t-44 -104l-24 24q33 33 33 80t-33.5 80zM747 312l-24 24
q65 65 65 156t-65 155t-157.5 64t-157.5 -64l-24 24q75 75 181.5 75t182 -74.5t75.5 -180t-76 -179.5z" />
    <glyph glyph-name="anli" unicode="&#xe673;" 
d="M171 807h464q17 0 28 -10l284 -282q10 -11 10 -28v0v-591q0 -46 -32 -74v0v0q-29 -30 -74 -30h-680q-43 0 -74 32v0q-32 25 -32 72v807q0 43 32 75q29 29 74 29v0v0zM665 294v0v0q65 -65 65 -154q0 -93 -65 -155q-66 -66 -155 -66q-44 0 -85 17.5t-70 48.5v0
q-66 66 -66 155q0 92 66 154l2 3q64 63 154 62t154 -65v0v0zM243 394v0q-10 0 -16.5 7t-6.5 16.5t6.5 16.5t16.5 7h85q9 0 16 -7t7 -16.5t-7 -16.5t-16 -7h-85v0v0zM243 489v0q-10 0 -16.5 7t-6.5 16.5t6.5 16.5t16.5 7h273q10 0 17 -7t7 -16.5t-7 -16.5t-17 -7h-273v0v0z
M243 583v0q-10 0 -16.5 6.5t-6.5 16t6.5 16.5t16.5 7h273q10 0 17 -7t7 -16.5t-7 -16t-17 -6.5h-273v0v0zM533 311v0v-159l138 -78q13 32 13 66q0 68 -49 120l-2 3q-43 39 -100 48v0v0zM646 34v0l-147 84q-15 8 -15 22v171q-54 -6 -97 -48l-2 -3q-51 -50 -51 -122.5
t51 -122.5v0q51 -51 123 -51t123 51q6 6 15 19v0v0zM877 462v0h-178q-35 0 -64 25v2q-25 29 -25 62v178h-439q-14 0 -19 -9q-9 -5 -9 -17v-807q0 -13 9 -19v0q8 -9 19 -9h680q11 0 19 9v0q9 8 9 19v566h-2v0zM836 509v0l-180 180v-138q0 -16 11 -30l2 -2q13 -13 30 -13h137
v3v0zM836 509z" />
    <glyph glyph-name="chaweizhang" unicode="&#xe663;" 
d="M512 762q-94 0 -179.5 -37t-147.5 -98.5t-98.5 -147t-36.5 -180t36.5 -180t98.5 -147t147.5 -98.5t179.5 -37t179.5 37t147.5 98.5t98.5 147t36.5 180t-36.5 180t-98.5 147t-147.5 98.5t-179.5 37zM338 456q-15 0 -15 16t15 16h148v35q0 15 16 15q17 0 17 -15v-35h159
q15 0 15 -16t-15 -16h-159v-41h159q15 0 15 -16t-15 -16h-159v-50h132q13 0 22 -2t14 -8t7 -18q2 -15 -1 -45t-10 -42q-16 -28 -47 -28q-17 0 -38 4q-22 4 -28 8q-7 5 -7 13q0 16 17 16q5 0 11 -2q26 -7 41 -7q17 0 25 15q4 7 5.5 25t1.5 24q-1 7 -3 10t-6 4t-10 1h-126
v-147q0 -15 -17 -15q-16 0 -16 15v147h-148q-15 0 -15 16q0 7 4.5 11.5t10.5 4.5h148v50h-148q-15 0 -15 16t15 16h148v41h-148zM265.5 412q9.5 0 16 -6.5t6.5 -15.5t-6.5 -15.5t-16 -6.5t-16 6.5t-6.5 15.5t6.5 15.5t16 6.5zM777 97q6 -6 0 -12l-13 -13q-5 -5 -11 0l-58 59
q-78 -70 -183 -70q-113 0 -193 80t-80 193q0 13 14.5 13t14.5 -13q0 -101 71.5 -173t172.5 -72q97 0 167.5 66t76.5 162q0 12 13 12q7 0 11 -3t4 -6l1 -3q-6 -92 -66 -162z" />
    <glyph glyph-name="huodong" unicode="&#xe644;" 
d="M673 321.5q0 60.5 -29 101t-70 62.5v167q0 28 -23 43q-13 9 -29 9q-10 0 -20 -4q-6 -3 -35 -26.5t-190 -160.5h-97q-36 0 -62.5 -25.5t-26.5 -60.5v-219q0 -35 26.5 -60t62.5 -25h89q169 -136 199 -159.5t37 -25.5q8 -3 17 -3q16 0 29 8q21 14 23 40v171q41 23 70 65
t29 102.5zM143 208v219q0 13 11 23.5t26 10.5h89v-286h-89q-15 0 -26 10t-11 23zM522 -13q-1 0 -222 184v294q221 187 222 187v-665zM553 202v235q68 -37 68 -115.5t-68 -119.5zM736 142q-11 0 -19 9q-20 23 0 48q46 60 46 124q0 61 -46 123q-19 26 -1 47q11 10 21 10
q9 0 21 -9q64 -73 64 -171t-64 -171q-7 -10 -22 -10zM841 19q-11 0 -21 9q-9 11 -9 25t9 24q86 98 86 245.5t-86 245.5q-9 10 -9 24t9 24q10 10 21 10t20 -9q50 -57 77 -133t27 -161.5t-27 -161t-77 -132.5q-8 -10 -20 -10z" />
    <glyph glyph-name="ershouchejiaoyiliuchengpeixunzhichi" unicode="&#xe6a6;" 
d="M994 133q28 80 28 166q0 104 -40 198.5t-108.5 163t-163 109t-198.5 40.5t-198.5 -40.5t-163 -108.5t-108.5 -162.5t-40 -198.5t40 -198.5t108.5 -163t163 -108.5t198.5 -40q95 0 182 33q-2 3 -7 15q-84 -33 -175 -33q-100 0 -191.5 39.5t-158 105.5t-105.5 157.5
t-39 191.5q0 101 39 192.5t105.5 158t158 105.5t191.5 39t191.5 -39t158 -105.5t105.5 -158t39 -191.5q0 -82 -26 -158q-8 1 -11 1q-16 0 -27.5 -11.5t-11.5 -27t11.5 -27t27.5 -11.5t27.5 11.5t11.5 27.5q0 17 -14 28zM670 185q-16 0 -27.5 11.5t-11.5 28t11.5 28t28 11.5
t28 -11.5t11.5 -28t-11.5 -28t-28.5 -11.5v0zM586 214v0q0 -5 -3.5 -8.5t-7.5 -3.5h-110q-5 0 -8.5 3.5t-3.5 8.5v32q0 5 3.5 8.5t8.5 3.5h110q4 0 7.5 -3.5t3.5 -8.5v-32v0zM368 185q-17 0 -28.5 11.5t-11.5 28t11.5 28t28 11.5t28 -11.5t11.5 -27.5q0 -17 -12 -28.5
t-27 -11.5v0zM355 403l17 46v1q1 4 2 6.5t4.5 6t4.5 5.5h270q2 -3 5 -6.5t4 -5.5t2 -6l18 -48l6 -25q-1 -14 -14.5 -24t-28.5 -10h-253q-15 0 -28.5 10t-14.5 24l6 26v0zM782 388h-52q-2 0 -7 -1l-23 70q-6 30 -25 45t-46 15h-220q-29 0 -47.5 -16.5t-23.5 -43.5l-23 -70
q-4 2 -7 2h-52q-6 0 -10.5 -4t-4.5 -11v-12q0 -6 4.5 -10.5t10.5 -4.5l19 -3q-10 -20 -10 -42l-7 -84q0 -5 1 -8q0 -1 -0.5 -2.5t-0.5 -2.5v-100q0 -10 7.5 -17.5t18.5 -7.5h39q11 0 18.5 7.5t7.5 17.5v33h340v-33q0 -10 7.5 -17.5t17.5 -7.5h40q11 0 18.5 7.5t7.5 17.5v100
q0 3 -1 5q0 1 0.5 3.5t0.5 4.5l-7 84q0 22 -10 42l19 3q6 0 10.5 4.5t4.5 10.5v12q0 6 -4.5 10t-10.5 4v0zM782 388z" />
    <glyph glyph-name="shangcheng" unicode="&#xe72b;" 
d="M1012 560v1v1l-134 266q-15 30 -48 30h-636q-33 0 -48 -29l-135 -270q-10 -23 -10 -41q0 -7 2 -17q8 -39 37.5 -67t69.5 -35v-456q0 -15 10.5 -25.5t25.5 -10.5h732q15 0 25.5 10.5t10.5 25.5v456q41 7 70.5 36t37.5 69v2v2q1 3 1 12q0 16 -11 40zM841 -20h-658v427
q24 11 44 31q12 -13 29 -23v-289q0 -15 10.5 -25.5t25.5 -10.5h439q15 0 26 10.5t11 25.5v289q17 10 29 23q19 -20 44 -31v-427zM329 163v235q52 2 88 40q39 -41 95 -41t95 41q36 -38 88 -40v-235h-366zM892 470q-22 0 -38.5 15t-19.5 36v0q-1 14 -12 23t-25 9
q-13 0 -23.5 -8.5t-13.5 -22.5v3v1q-1 -23 -17.5 -39.5t-40.5 -16.5q-23 0 -40 16t-18 39v-2v-1q-2 14 -12.5 23t-24.5 9t-24.5 -8.5t-12.5 -22.5v0q-2 -22 -18.5 -37.5t-39.5 -15.5t-39.5 15t-18.5 37q-2 14 -12.5 23t-24.5 9t-24.5 -8.5t-12.5 -22.5v3v1q-1 -24 -18 -40.5
t-40 -16.5t-39.5 15t-18.5 37v0q-2 14 -12.5 23t-24.5 9t-24.5 -8.5t-12.5 -22.5v3q-1 -24 -18 -40t-40 -16t-39.5 14.5t-18.5 36.5l131 263h613l132 -263q-3 -22 -19.5 -36.5t-38.5 -14.5z" />
    <glyph glyph-name="saoma" unicode="&#xe6c4;" 
d="M96 442q13 0 21.5 9t8.5 22v148q0 26 19 44t45 18h148q13 0 22 9.5t9 22.5t-9 22t-22 9h-148q-52 0 -88.5 -36.5t-36.5 -88.5v-148q0 -13 9 -22t22 -9zM834 746h-148q-13 0 -22 -9t-9 -22t9 -22.5t22 -9.5h148q26 0 43.5 -18t17.5 -44v-148q0 -13 9 -22t22 -9t22 9t9 22
v148q0 52 -36 88.5t-87 36.5zM926 156q-13 0 -22 -9t-9 -22v-148q0 -26 -17.5 -43.5t-43.5 -17.5h-148q-13 0 -22 -9t-9 -22t9 -22t22 -9h148q52 0 87.5 35.5t35.5 87.5v148q0 13 -9 22t-22 9zM338 -84h-148q-26 0 -45 17.5t-19 43.5v148q0 13 -8.5 22t-21.5 9t-22 -9
t-9 -22v-148q0 -52 36.5 -87.5t88.5 -35.5h148q13 0 22 9t9 22t-9 22t-22 9zM927 332h-830q-13 0 -22 -8.5t-9 -21.5t9 -22t22 -9h830q13 0 22 9t9 22t-9 21.5t-22 8.5z" />
    <glyph glyph-name="kuajingzhifuiconqiye" unicode="&#xe66f;" 
d="M887 -147v843l-133 116l-444 -166v-41l403 136v-949h268v61h-94zM166 112l211 43v107l-211 -56v-94zM166 -210h211v113l-211 -16v-97zM166 -48l211 20v107l-211 -35v-92zM166 276l211 58v111l-211 -71v-98zM611 553l-119 72l-449 -162v-675h59v643l336 110v-750h173v762
v0zM611 553z" />
    <glyph glyph-name="kaoshi" unicode="&#xe71e;" 
d="M774 748h-524q-78 0 -132 -55.5t-54 -136.5v-512q0 -81 54 -136.5t132 -55.5h345q19 0 37 7.5t39.5 25.5t36.5 32.5t43 44t43 44.5q10 10 37 36.5t39 38.5t31.5 34t28.5 36.5t16.5 32t7.5 33.5v339q4 81 -49 136.5t-131 55.5zM192 44l58 198l147 -147zM448 134l-166 166
l320 320l166 -166zM640 -65v237h230z" />
    <glyph glyph-name="book" unicode="&#xe69a;" 
d="M742 -110h-512q-10 0 -17.5 7.5t-7.5 18.5t7.5 18.5t17.5 7.5h512q11 0 18.5 -7.5t7.5 -18.5t-7.5 -18.5t-18.5 -7.5zM844.5 658q-10.5 0 -18 -7.5t-7.5 -17.5v-768q0 -11 -7.5 -18.5t-17.5 -7.5h-564q-31 0 -53.5 22.5t-22.5 54.5t22.5 54.5t53.5 22.5h461
q32 0 54.5 22.5t22.5 54.5v614q0 32 -22.5 54.5t-54.5 22.5h-512q-32 0 -54.5 -22.5t-22.5 -54.5v-768q0 -53 37.5 -90.5t90.5 -37.5h564q31 0 53.5 22.5t22.5 54.5v768q0 10 -7.5 17.5t-18 7.5zM179 710h512q11 0 18.5 -7.5t7.5 -18.5v-614q0 -11 -7.5 -18.5t-18.5 -7.5
h-461q-42 0 -76 -26v666q0 11 7.5 18.5t17.5 7.5z" />
    <glyph glyph-name="erji" unicode="&#xe611;" 
d="M942 19v-4h1q-1 2 -1 4zM966 194v205q0 83 -32 159q-32 73 -88.5 129.5t-129.5 87.5q-76 33 -159 33h-90q-83 0 -159 -33q-73 -31 -129.5 -87.5t-88.5 -129.5q-32 -76 -32 -159v-207q-57 -68 -57 -160q0 -101 67 -172q67 -72 163 -72q38 0 74 13q19 7 30.5 23.5
t11.5 36.5v342q0 20 -11.5 36.5t-30.5 23.5q-36 13 -74 13q-73 0 -132 -44v167q0 99 49.5 184t134 134.5t184.5 49.5h90q100 0 184.5 -49.5t134 -134.5t49.5 -184v-167q-59 44 -131 44q-38 0 -74 -13q-19 -7 -30.5 -23.5t-11.5 -36.5v-342q0 -20 11.5 -36.5t30.5 -23.5
q36 -13 74 -13q96 0 163 72q67 71 67 172q0 93 -58 162zM231 235q31 0 60 -11q15 -5 15 -21v-342q0 -16 -15 -22q-29 -10 -60 -10q-78 0 -133.5 59.5t-55.5 143.5t55.5 143.5t133.5 59.5zM794 -171q-31 0 -60 10q-15 6 -15 22v342q0 16 15 21q29 11 60 11q78 0 133.5 -59.5
t55.5 -143.5t-55.5 -143.5t-133.5 -59.5z" />
    <glyph glyph-name="Secret" unicode="&#xe639;" 
d="M498.5 721q94.5 0 161 -66.5t66.5 -160.5v-70h-455v70q0 94 66.5 160.5t161 66.5zM499 774q-116 0 -198 -82.5t-82 -197.5v-123h560v123q0 115 -82.5 197.5t-197.5 82.5v0zM814 371v-385q0 -43 -31 -74t-74 -31h-420q-44 0 -74.5 31t-30.5 74v385h630zM866 424h-735v-438
q0 -66 46 -111.5t112 -45.5h420q66 0 111.5 45.5t45.5 111.5v438zM507.5 196q10.5 0 18.5 -8t8 -18v-105q0 -11 -8 -18.5t-18.5 -7.5t-18.5 7.5t-8 18.5v105q0 10 8 18t18.5 8z" />
    <glyph glyph-name="baoming" unicode="&#xe751;" 
d="M902 402v-448q0 -24 -13.5 -40.5t-37.5 -16.5h-678q-24 0 -41 16.5t-17 40.5v672q0 24 17 41t41 17h448v51h-448q-43 0 -76 -32.5t-33 -76.5v-672q0 -47 32 -77.5t77 -30.5h672q47 0 78 32t31 76v448h-52zM288 134q-5 -14 -4 -31.5t10 -26.5q16 -16 64 0
q38 19 128.5 67.5t102.5 60.5v0v0v0v0v0v1h1v0v0v0v0l1 1v0v0v0v1h1v0v1h1v0v1h1v0v1h1v0v1h1v0l1 1v0l1 1v0v1h1v1h1v1h1v1h1v1h1v1h1v1h1l1 1v0l1 1v0l1 1v1h1l1 1v0l1 1v1h1l1 1v1h1l1 1v0l1 1l1 1v0l1 1l1 1v0l1 1l1 1v1h1l1 1v1h1l1 1l1 1v1h1l1 1l1 1v1h1l1 1l1 1v1h1
l1 1l1 1v1h1l1 1l1 1l1 1v1h1l1 1l1 1l1 1v1h1l1 1l1 1l1 1v1l1 1h1l1 1l1 1l1 1l1 1v1h1l1 1l1 1l1 1l1 1l1 1v1h1l1 1l1 1l1 1l1 1l1 1l1 1v1l1 1h1l1 1l1 1l1 1l1 1l1 1l1 1l1 1v1l1 1h1l1 1l1 1l1 1l1 1l1 1l1 1l1 1l1 1l1 1v1l1 1l1 1h1l1 1l1 1l1 1l1 1l1 1l1 1l1 1
l1 1l1 1l1 1l1 1l1 1l1 1l1 1v1l1 1l1 1l1 1l1 1l1 1h1l1 1l1 1l1 1l1 1l1 1l1 1l1 1l1 1l1 1l1 1l1 1l1 1l1 1l1 1l1 1l1 1l1 1l1 1l1 1l1 1l1 1l1 1l1 1l1 1l1 1l1 1l1 1l1 1l1 1l1 1l1 1l1 1l1 1l1 1l1 1l1 1l1 1l1 1l1 1l1 1l1 1l1 1l1 1l1 1l1 1l1 1l1 1l1 1l1 1l1 1
l1 1l1 1l1 1l1 1l1 1l1 2l2 1l1 1l2 2l1 1l1 2l2 1l1 1l2 2l1 1l1 2l2 1l1 1l2 2l1 1l1 2l2 1l1 2l2 1l1 1l2 2l1 1l1 2l2 1l1 2l2 1l1 1l2 2l1 1l2 2l1 1l2 2l1 1l2 2l1 1l2 2l1 1l1 2l2 1l1 2l2 1l1 2l2 1l1 2l2 1l1 2l2 1l1 2l2 1l1 2l2 1l1 2l2 1l1 2l2 1l2 2l1 1l2 2
l1 1l2 2l1 1l2 2l1 1l2 2l1 2l2 1l1 2l2 1l1 2l2 1l2 2l1 1l2 2l1 1l2 2l1 2l2 1l1 2l2 1l2 2l1 1l2 2l1 1l2 2l1 2l2 1l1 2l2 1l2 2l1 1l2 2l1 1l2 2l1 2l2 1l1 2l2 1l2 2l1 1l2 2l1 1l2 2l1 2l2 1l1 2l2 1l1 2l2 1l2 2l1 1l2 2l1 1l2 2l1 1l2 2l1 1l1 2l2 1l1 2l2 1l1 1
l1 2l2 1l1 1l1 2l2 1l1 1l1 1q11 12 13.5 28t-2 28.5t-11.5 20.5q-58 57 -103 96q-38 38 -83 -7q-1 -1 -27.5 -26.5t-67 -65.5t-86.5 -85t-94.5 -93t-82.5 -82q-9 -9 -29.5 -48.5t-39 -80.5t-35.5 -80t-18 -40zM787 684q6 6 17 7t22 -7v-1h1l1 -1v-1h1l1 -1l1 -1v-1l1 -1h1
l1 -1l1 -1l1 -1l1 -1l1 -1l1 -1l1 -1l1 -1l1 -1l1 -1l1 -1l1 -1l1 -1l1 -1l1 -1l1 -1l1 -1l1 -1l1 -1l1 -2l1 -1l1 -1l1 -1l2 -1l1 -1l1 -1l1 -1l1 -1l1 -1l1 -2l1 -1l1 -1l1 -1l1 -1l2 -1l1 -1l1 -1l1 -1l1 -2l2 -1l1 -2l2 -1l1 -1l1 -1l1 -2l1 -1q4 -4 7.5 -9.5t4.5 -14
t-5 -14.5l-58 -58l-102 96zM691 582l103 -96l-244 -244l-102 103zM499 217l-134 -90q-10 -6 -17 -8.5t-11 0t-4 9t19 44.5q0 6 70 122z" />
    <glyph glyph-name="yaoqingmaicon" unicode="&#xe687;" 
d="M515 268q0 38 18.5 70t49.5 51q-29 7 -69 7q50 1 85 37t35 86.5t-36.5 87t-87 36.5t-87.5 -36.5t-37 -87.5t36 -87t87 -36q-96 -2 -164 -44t-68 -102t68.5 -102.5t166.5 -42.5q71 0 127 23q-52 6 -88 46t-36 94zM657.5 396q-53.5 0 -90.5 -37t-37 -90.5t37 -90.5
t90.5 -37t90.5 37t37 90.5t-37 90.5t-90.5 37zM738 262h-76v-83h-13v83h-76v11h76v83h13v-83h76v-11z" />
    <glyph glyph-name="shezhi" unicode="&#xe68c;" horiz-adv-x="1025" 
d="M819 812h-616q-84 0 -143.5 -59.5t-59.5 -143.5v-616q0 -84 59.5 -143.5t143.5 -59.5h616q84 0 143.5 59.5t59.5 143.5v616q0 84 -59.5 143.5t-143.5 59.5zM870 208q-13 -49 -39 -93q-20 10 -43 10q-39 0 -66.5 -27.5t-27.5 -66.5v-1.5v-1.5q0 -23 10 -43
q-44 -28 -94 -41q-5 34 -31.5 57t-61.5 23q-36 0 -63 -24t-30 -59q-52 12 -98 39q13 22 13 48q0 39 -27.5 66.5t-66.5 27.5q-27 0 -50 -15q-29 47 -43 101q35 4 58.5 30.5t23.5 62.5t-23.5 62.5t-58.5 30.5q14 53 42 99q19 -9 40 -9q39 0 66.5 27.5t27.5 66.5q0 21 -9 40
q49 30 105 43q3 -35 30 -59t63 -24q35 0 61.5 23t31.5 57q53 -14 100 -44q-16 -24 -16 -52q0 -39 27.5 -66.5t66.5 -27.5q25 0 47 13q23 -41 35 -87q-35 -4 -58.5 -30.5t-23.5 -62.5v0v0q0 -36 23.5 -62.5t58.5 -30.5zM511 301zM343 301q0 69 49.5 118.5t118.5 49.5
t118 -49.5t49 -118.5t-49 -118t-118 -49t-118.5 49t-49.5 118z" />
    <glyph glyph-name="weibiaoti101" unicode="&#xe656;" 
d="M764 286h-122l61 105v0q31 54 31 115q0 96 -67.5 163.5t-163 67.5t-163 -67.5t-67.5 -163.5q0 -61 32 -115h-1l61 -105h-122l-191 -441h903zM354 363v0l-25 43q-27 47 -27 100q0 84 59 143t142.5 59t142.5 -59t59 -143q0 -53 -27 -100l-25 -43v0l-44 -77l-18 -32
l-87 -150l-87 150l-19 32zM264 254h119l121 -208l120 208h120l163 -377h-807zM461 507q0 18 12.5 30t30 12t30 -12t12.5 -30t-12.5 -30.5t-30 -12.5t-30 12.5t-12.5 30.5zM764 286h-122l61 105v0q31 54 31 115q0 96 -67.5 163.5t-163 67.5t-163 -67.5t-67.5 -163.5
q0 -61 32 -115h-1l61 -105h-122l-191 -441h903zM354 363v0l-25 43q-27 47 -27 100q0 84 59 143t142.5 59t142.5 -59t59 -143q0 -53 -27 -100l-25 -43v0l-44 -77l-18 -32l-87 -150l-87 150l-19 32zM264 254h119l121 -208l120 208h120l163 -377h-807zM461 507q0 18 12.5 30
t30 12t30 -12t12.5 -30t-12.5 -30.5t-30 -12.5t-30 12.5t-12.5 30.5zM764 286h-122l61 105v0q31 54 31 115q0 96 -67.5 163.5t-163 67.5t-163 -67.5t-67.5 -163.5q0 -61 32 -115h-1l61 -105h-122l-191 -441h903zM354 363v0l-25 43q-27 47 -27 100q0 84 59 143t142.5 59
t142.5 -59t59 -143q0 -53 -27 -100l-25 -43v0l-44 -77l-18 -32l-87 -150l-87 150l-19 32zM264 254h119l121 -208l120 208h120l163 -377h-807zM461 507q0 18 12.5 30t30 12t30 -12t12.5 -30t-12.5 -30.5t-30 -12.5t-30 12.5t-12.5 30.5v0z" />
    <glyph glyph-name="iconfontwangting" unicode="&#xe6bb;" horiz-adv-x="1211" 
d="M1210 409v320q0 32 -23 54.5t-54 22.5h-1053q-32 0 -54.5 -22.5t-22.5 -54.5v-320q0 -27 17.5 -48t42.5 -27v-483h-38q-10 0 -17 -6.5t-7 -16.5t7 -17t17 -7h1161q9 0 16 7t7 17t-7 16.5t-16 6.5h-37v483q26 6 43.5 27t17.5 48v0zM581 -149v0h-211v34v251q0 12 8.5 20.5
t20.5 8.5h182v-314v0zM627 -149v314h178q12 0 20.5 -8.5t8.5 -20.5v-214l1 -71h-208v0zM1102 -149h-220v71v214q0 32 -22.5 54.5t-54.5 22.5h-406q-32 0 -54.5 -22.5t-22.5 -54.5v-250v-35h-211v481h991v-481v0zM1133 380h-1053q-12 0 -20.5 8.5t-8.5 20.5v320
q0 12 8.5 20.5t20.5 8.5h1053q12 0 20.5 -8.5t8.5 -20.5v-320q0 -12 -8.5 -20.5t-20.5 -8.5v0zM128 643q0 21 15 36t36 15t36 -15t15 -36t-15 -36t-36 -15t-36 15t-15 36v0zM287 642q0 21 15 36t36 15t36 -15t15 -36.5t-15 -36.5t-36 -15t-36 15t-15 37v0zM445 642
q0 21 15 36t36.5 15t36.5 -15t15 -36.5t-15 -36.5t-36.5 -15t-36.5 15t-15 37v0z" />
    <glyph glyph-name="wenjuandiaocha" unicode="&#xe624;" 
d="M831 515.5q0 10.5 -7.5 18.5t-18.5 8h-469q-11 0 -18.5 -8t-7.5 -18.5t7.5 -18.5t18.5 -8h469q11 0 18.5 8t7.5 18.5zM779 317.5q0 10.5 -8 18.5t-19 8h-416q-11 0 -18.5 -8t-7.5 -18.5t7.5 -18.5t18.5 -8h416q11 0 19 8t8 18.5zM625 -149l-1 1v2h-522q-11 0 -15 4.5
t-4 14.5v853q0 11 4 15t15 4h797q10 0 14.5 -4t4.5 -15v-444v0v-2q0 -11 8 -18t18.5 -7t18 7t7.5 18l1 1v490q0 11 -8 19t-19 8h-888q-11 0 -18.5 -8t-7.5 -19v-943q0 -11 7.5 -18.5t18.5 -7.5h567v2h1q15 8 15 24t-14 23zM336 146q-11 0 -18.5 -8t-7.5 -19t7.5 -18.5
t18.5 -7.5h278q11 0 18.5 7.5t7.5 18.5t-7.5 19t-18.5 8h-278zM215 477q16 0 27 11.5t11 27t-11 27t-27 11.5t-27.5 -11.5t-11.5 -27t11.5 -27t27.5 -11.5zM993 162q-5 4 -10 4q-8 0 -16 -7l-224 -207l-91 73q-8 7 -16 7q-7 0 -12 -4q-13 -10 -3 -26l101 -136q9 -11 18 -11
q10 0 18 11l233 272q11 17 2 24zM220 157q-16 0 -27.5 -11.5t-11.5 -27.5t11.5 -27t27.5 -11t27.5 11t11.5 27t-11.5 27.5t-27.5 11.5zM247.5 343q-11.5 11 -27.5 11t-27.5 -11t-11.5 -27t11.5 -27.5t27.5 -11.5t27.5 11.5t11.5 27.5t-11.5 27z" />
    <glyph glyph-name="qingjia" unicode="&#xe61d;" horiz-adv-x="1039" 
d="M441 -158q-12 0 -20 8t-8 19v63q0 96 54 174.5t143 113.5l7 3l-6 5q-34 26 -52.5 64t-18.5 81q0 76 54.5 130t131 54t131 -54t54.5 -130q0 -43 -18.5 -81t-52.5 -64l-6 -5l7 -3q90 -35 143.5 -113.5t53.5 -174.5v-63q0 -11 -8 -19t-19 -8h-570zM984 -104v36
q0 106 -76 181t-182.5 75t-182 -75t-75.5 -181v-36h516zM725.5 503q-54.5 0 -92.5 -38t-38 -92t38 -92t92.5 -38t93 38t38.5 92t-38.5 92t-93 38zM359 363l-131 -132l42 -31l147 147v234h-58v-218zM70 308q-28 131 44 243q35 54 87.5 90.5t115.5 49.5q34 8 69 8
q64 0 124.5 -25.5t105.5 -72.5l64 23q-55 65 -132.5 101t-161.5 36q-41 0 -82 -9q-75 -16 -137.5 -59t-104.5 -108t-55.5 -140t2.5 -150q24 -114 106.5 -194.5t196.5 -102.5l40 57q-105 10 -182.5 79.5t-99.5 173.5z" />
    <glyph glyph-name="sanjiao" unicode="&#xe616;" 
d="M723 -67l-456 379l456 379v-758z" />
    <glyph glyph-name="tupian" unicode="&#xe6bd;" 
d="M878 613h-732q-7 0 -11.5 -4.5t-4.5 -11.5v-594q0 -7 4.5 -11.5t11.5 -4.5h732q7 0 11.5 4.5t4.5 11.5v594q0 7 -4.5 11.5t-11.5 4.5v0v0zM172 577h679q9 0 9 -8v-460l-204 199q-5 5 -12 5t-11 -5l-74 -74l-143 143q-12 12 -23 0l-229 -229v421q0 8 8 8v0v0zM851 20h-679
q-8 0 -8 8v74l240 240l242 -242q5 -5 12 -5t11.5 5t4.5 12t-5 11l-87 88l62 62l216 -211v-34q0 -8 -9 -8v0v0zM707 349q34 0 58 24t24 58t-24 58t-58 24t-58 -24t-24 -58t24 -58t58 -24v0v0zM707 481q21 0 35 -14.5t14 -35t-14 -35t-34.5 -14.5t-35 14.5t-14.5 35t14.5 35
t34.5 14.5v0v0z" />
    <glyph glyph-name="erweima2" unicode="&#xe607;" 
d="M445 637h-235q-14 0 -24 -13.5t-10 -27.5v-228q0 -14 13.5 -26.5t27.5 -12.5h225q14 0 27.5 13.5t13.5 27.5v226q0 14 -12 27.5t-26 13.5zM442 370h-225v226h225v-226zM361 514h-62v-62h62v62zM445 288h-235q-14 0 -24 -13t-10 -28v-227q0 -14 13.5 -26.5t27.5 -12.5h225
q14 0 27.5 13.5t13.5 27.5v225q0 15 -12 28t-26 13zM442 22h-225v225h225v-225zM361 166h-62v-62h62v62zM793 637h-235q-13 0 -23.5 -13.5t-10.5 -27.5v-228q0 -14 13.5 -26.5t27.5 -12.5h226q14 0 27.5 13.5t13.5 27.5v226q0 14 -12.5 27.5t-26.5 13.5zM791 370h-226v226
h226v-226zM709 514h-62v-62h62v62zM770 227h-82v61h-164v-122v-21v-164h82v164h62v-41h164v112v11v62l-62 -1v-61zM668 -19h61v62h-61v-62zM801 43h-1h-30v-62h28v1l3 -1q13 0 22 9t9 22q0 1 -1 2v1h1v28h-31v0z" />
    <glyph glyph-name="icon1" unicode="&#xe66b;" 
d="M789 302q30 -10 52 -23q94 -52 137 -151q29 -66 25 -143q-1 -25 -22 -30q-14 -3 -24.5 6.5t-9.5 24.5q5 85 -38 154q-60 94 -168 116q-7 2 -19 3.5t-15 1.5q-10 2 -16.5 9t-7.5 16q-2 23 19 30q49 15 83 58q35 44 39 98q6 79 -45 138q-39 44 -98 57q-19 5 -50 5
q-10 0 -17.5 6t-9.5 15q-2 13 6 22.5t21 10.5q55 2 102 -19q113 -49 139 -165q29 -122 -58 -217l-12 -12q-1 0 -13 -11zM402 209q5 -9 18.5 -32t20.5 -35q42 -72 54 -91q2 -4 -1 -7q-41 -40 -89 -87q-3 -4 -7 0q-34 34 -88 87q-3 3 -1 7q20 34 91 155zM776 -17q-6 38 -17 68
q-57 153 -206 222q-12 5 -31 12q99 64 115 174q16 114 -62 199q-72 79 -178.5 78.5t-178.5 -79.5q-75 -82 -61 -192q13 -114 116 -180q-1 0 -5 -2q-14 -5 -29 -12q-111 -51 -173 -156q-36 -60 -47 -131q-4 -23 15 -32q23 -10 38 9q5 5 7 20q21 106 96 175q129 119 299 79
q134 -31 206 -157q26 -44 37 -106q2 -12 12.5 -18.5t22.5 -4.5q12 3 19 13t5 21zM397 307q-78 0 -132.5 55t-54.5 132q0 78 55 132.5t132.5 54.5t132 -55t54.5 -132.5t-54.5 -132.5t-132.5 -54z" />
    <glyph glyph-name="daohang" unicode="&#xe6a2;" 
d="M68 642h137v-139h-137v139zM290 642h663v-139h-663v139zM68 366h137v-139h-137v139zM290 366h553v-139h-553v139zM68 91h137v-140h-137v140zM290 91h608v-140h-608v140z" />
    <glyph glyph-name="chaxun" unicode="&#xe6a7;" horiz-adv-x="1025" 
d="M116.5 665q-78.5 -82 -105 -190t4.5 -215t112.5 -185.5t189.5 -105t215 4.5t185.5 112.5t105 190t-4 215t-112.5 185.5t-190 105t-215 -4.5t-185.5 -112.5zM610.5 191q-76.5 -80 -187.5 -82.5t-190.5 74.5t-82 187.5t74.5 190.5t187.5 82t190.5 -74.5t82 -187
t-74.5 -190.5zM627 44l217 -208q32 -30 76 -29t74.5 32.5t30 76t-32.5 74.5l-217 208z" />
    <glyph glyph-name="paixingbang" unicode="&#xe6fe;" 
d="M768 331q-5 0 -8.5 1.5t-6 4.5t-3.5 7.5t-1 8.5h-22q0 -10 3 -17.5t8.5 -12.5t13 -8t17.5 -3q8 0 15.5 2.5t13.5 7t9.5 11.5t3.5 16q0 10 -5.5 17t-14.5 9v0q8 3 11.5 9t3.5 15q0 7 -3 13t-8.5 10t-12.5 6t-13 2q-9 0 -16 -2.5t-12.5 -8t-8 -12.5t-3.5 -16h22
q0 9 4.5 14.5t13.5 5.5q6 0 11 -4t5 -11q0 -5 -2.5 -8t-6 -4.5t-8 -1.5h-7.5v-16q4 0 8.5 -0.5t8.5 -2t6.5 -5t2.5 -9.5q0 -9 -5.5 -13.5t-13.5 -4.5v0v0zM265 483q-4 -4 -8 -6.5t-8 -5.5q-6 -4 -14 -9q-6 -5 -11 -11t-7.5 -13.5t-2.5 -16.5h83v19h-54q4 6 9.5 10.5
t11.5 8.5l12 8q5 3 9.5 8t7.5 11t3 15q0 8 -3 15t-8.5 11.5t-12.5 7t-15 2.5q-10 0 -18 -3.5t-13 -10t-7.5 -15t-2.5 -17.5h22q0 4 1 8.5t3 8.5t5.5 6.5t8.5 2.5q8 0 12.5 -4.5t4.5 -13.5q0 -5 -2.5 -9t-5.5 -7v0v0zM500 583h23v114h-19q-1 -6 -4 -10.5t-7.5 -7.5t-10 -4
t-11.5 0v-18h29v-74v0v0zM848 -1h-195v202v18q0 7 7 7h187q7 0 7 -7v-213q0 -7 -6 -7v0v0zM169 6l1 334q0 7 7 7h187q7 0 7 -7l-1 -17v-324h-194q-7 0 -7 7v0v0zM411 502q0 6 7 6h188q6 0 6 -6v-503h-201v503v0v0zM847 267h-179q-8 0 -15 -3v238q0 19 -14 33t-33 14h-188
q-20 0 -34 -14t-14 -33v-117q-7 3 -15 3h-178q-20 0 -34 -14t-14 -34v-334q0 -20 13.5 -34t33.5 -14h672q19 0 33 14t14 34v213q0 20 -14 34t-34 14v0v0zM847 267z" />
    <glyph glyph-name="fangxing01" unicode="&#xe6c5;" 
d="M984 175v55v138v165v144v22v26v22v1q0 12 -10 19.5t-21 4.5q-22 -7 -45 -13q-53 -15 -107 -31q-64 -18 -129 -37q-56 -16 -112 -31q-3 -2 -21 -6.5t-27 -7.5q-18 5 -38 10q-54 16 -108 31q-64 19 -129 37h-1l-1 1h-1h-1h-1l-1 1h-1h-1l-1 1h-1h-1h-1l-1 1h-1h-1l-1 1h-1
h-1h-1l-1 1h-1h-1l-1 1h-1h-1h-1l-1 1h-1h-1l-1 1h-1h-1h-1l-1 1h-1h-1l-1 1h-1h-1h-1l-1 1h-1h-1l-1 1h-1h-1h-1l-1 1h-1h-1l-1 1h-1h-1h-1l-1 1h-1h-1l-1 1h-1h-1l-1 1h-1h-1h-1l-1 1h-1h-1l-1 1h-1h-1h-1l-1 1h-1h-1l-1 1h-1h-1h-1l-1 1h-1h-1l-1 1h-1h-1h-1l-1 1h-1h-1
l-1 1h-1h-1h-1l-1 1h-1h-1l-1 1h-1h-1h-1l-1 1h-1h-1l-1 1h-1h-1h-1l-1 1h-1h-1l-2 1l-55 15v0.5v0.5q-12 3 -22 -4.5t-10 -19.5v-57v-138v-166v-144v-70v0v-1q0 -12 11 -20q1 0 2 -1q7 -5 22 -15.5t22 -16.5l1 -1h1l1 -1l1 -1h1l1 -1l1 -1l1 -1h1l1 -1l1 -1h1l1 -1l1 -1
l1 -1h1l1 -1l1 -1h1l1 -1l1 -1l1 -1h1l1 -1l1 -1h1l1 -1l1 -1l1 -1h1l1 -1l1 -1h1l1 -1l1 -1l1 -1h1l1 -1l1 -1h1l1 -1l1 -1l1 -1h1l1 -1l1 -1h1l1 -1l1 -1l1 -1h1l1 -1l2 -1l1 -1l1 -1h1l1 -1l1 -1l1 -1h1l1 -1l1 -1h1l1 -1l1 -1l1 -1h1l1 -1l1 -1h1l1 -1l1 -1l1 -1h1l1 -1
l1 -1h1l1 -1l1 -1l1 -1h1l1 -1l1 -1h1l1 -1l1 -1l1 -1h1l1 -1l1 -1h1l1 -1l1 -1l1 -1h1l1 -1l1 -1h1l1 -1l1 -1l1 -1h1l1 -1l1 -1l2 -1q23 -16 66.5 -47t63.5 -46q19 -13 55 -39.5t56 -39.5q6 -5 17 -13t20 -14.5t18 -11.5v-0.5v-0.5q13 -9 25 0q22 16 45 32l106 76
q85 62 130 93q37 26 112 80q6 4 17 12t20 14.5t17 12.5h1v0l1 1q8 5 10 14v0q1 2 1 4.5v4.5zM563 609q53 15 107 31q65 18 129 37q56 16 112 31q4 2 24 7v-24v-138v-166v-144v-20.5v-17.5l-14 4l-54 15t-53 15q-16 6 -41 12.5t-48 13.5t-41 12q-8 2 -26.5 7.5t-28.5 7.5
q-10 3 -28.5 8.5t-26.5 7.5q-6 2 -18.5 5.5t-19.5 5.5v89v173v21q14 3 27 7zM209 681l129 -37h1l1 -1h1h1h1l1 -1h1h1l1 -1h1h1h1l1 -1h1h1l1 -1h1h1h1l1 -1h1h1l1 -1h1h1h1l1 -1h1h1l1 -1h1h1h1l1 -1h1h1l1 -1h1h1h1l1 -1h1h1l1 -1h1h1h1l1 -1h1h1l1 -1h1h1h1l2 -1h1h1
l1 -1h1h1l1 -1h1h1h1l1 -1h1h1l1 -1h1h1h1l1 -1h1h1l1 -1h1h1h1l1 -1h1h1l1 -1h1h1h1l1 -1h1h1l1 -1h1h1h1l1 -1h1h1l1 -1h1h1h1l1 -1h1h1l1 -1h1h1h1l1 -1h1h1l2 -1q6 -2 18.5 -5.5t18.5 -5.5v-89v-172v-21q-3 -1 -8.5 -2.5t-7.5 -2.5q-2 0 -4.5 -1l-2.5 -1q-1 0 -2 -0.5
l-1 -0.5q-2 0 -6 -1.5t-6 -1.5q-12 -3 -38.5 -11t-41.5 -12q-4 -1 -12.5 -3.5t-12.5 -3.5v45v123v28q0 8 -5 15t-13 8q-18 4 -56.5 13t-55.5 12l-16 4q-11 3 -21 -4t-10 -20v-96v-153v-26q-5 -1 -20 -5.5t-23 -6.5l-11 -3q-4 -1 -24 -7v25v138v165v144v21v17q3 -1 13 -3
q54 -16 107 -31zM295 397v-123v-8q-39 -9 -79 -18v66v153v5q15 -5 40 -9q27 -8 39 -9v-57zM796 85q-25 -16 -68.5 -47.5t-61.5 -44.5q-14 -12 -35 -26t-41.5 -28.5t-35.5 -25.5q-5 -4 -20 -14t-23 -16q-4 4 -15 11.5t-17 11.5h-1l-1 1l-1 1l-1 1h-1l-1 1l-1 1h-1l-1 1l-1 1
l-1 1h-1l-1 1l-1 1h-1l-1 1l-1 1l-1 1h-1l-1 1l-1 1h-1l-1 1l-1 1l-1 1h-1l-1 1l-1 1h-1l-1 1l-1 1l-1 1h-1l-1 1l-1 1h-1l-1 1l-1 1l-1 1h-1l-1 1l-1 1h-1l-1 1l-1 1l-1 1h-1l-1 1l-1 1h-1l-1 1l-1 1l-1 1h-1l-1 1l-1 1h-1l-1 1l-1 1l-1 1h-1l-1 1l-1 1h-1l-1 1l-1 1l-1 1
h-1l-1 1l-1 1h-1l-1 1l-1 1l-1 1h-1l-1 1l-1 1h-1l-1 1l-1 1l-1 1h-1l-1 1l-1 1h-1l-1 1l-1 1l-1 1h-1l-1 1l-1 1h-1l-1 1l-1 1l-1 1h-1l-1 1l-1 1h-1l-1 1l-1 1l-1 1h-1l-1 1l-1 1l-1 1q-87 62 -130 93q-22 15 -111 79q-5 4 -12 9q17 5 51 14.5t51 14.5q88 25 129 37
q85 24 112 32q4 1 22 6t27 8q4 -2 17.5 -5.5t20.5 -5.5q17 -5 52.5 -15t54.5 -16q86 -25 129 -37q16 -3 35.5 -9.5t40 -12t36.5 -10.5q2 0 6 -1q-1 -1 -2 -1q-53 -39 -106 -77z" />
    <glyph glyph-name="youxiang2" unicode="&#xe682;" 
d="M905 610q-26 17 -63 36l-36 21t-27 16q-14 8 -39.5 22.5t-46 26.5t-39.5 23q-8 5 -29.5 17t-32.5 19q-33 21 -79 21h-7q-18 0 -40.5 -7t-35.5 -15q-11 -7 -32 -18.5t-31 -17.5q-23 -15 -67.5 -40t-57.5 -32q-2 -2 -26.5 -15.5t-35.5 -20.5q-10 -7 -31 -18.5t-31 -18.5
q-28 -18 -49.5 -53.5t-21.5 -72.5v-366q0 -37 21.5 -72.5t49.5 -53.5q17 -11 38 -23.5t47 -27t39 -22.5q12 -7 57 -32t68 -40q12 -7 33 -19t30 -17q37 -22 76 -22h14q8 0 18 2t18.5 4.5t19.5 7.5t18 8t18.5 9.5t16 9.5t15.5 10t13 8q24 14 67 38.5t58 32.5q13 8 39 22.5
t47 26.5t37 23q27 18 49.5 53.5t22.5 71.5v370q0 37 -22.5 72t-49.5 53zM941 128q0 -33 -20.5 -65t-45.5 -49q-15 -10 -34.5 -21.5t-43 -24.5t-36.5 -20q-13 -8 -53 -30.5t-61 -35.5q-2 -1 -12 -7.5t-14.5 -9t-15 -8.5t-17 -9t-16.5 -7.5t-18 -7t-17 -4t-16 -1.5h-13
q-36 0 -70 20q-8 5 -27.5 16t-30.5 17q-21 14 -62.5 37t-52.5 30q-12 7 -36 20t-43.5 24.5t-34.5 21.5q-25 17 -45.5 49.5t-20.5 66.5v337q0 34 20.5 67t44.5 49q10 6 29.5 17t28.5 17q10 6 32.5 18.5t24.5 14.5q12 6 53 29.5t62 36.5q9 5 28.5 16t29.5 17q12 8 32.5 14.5
t37.5 6.5h6q42 0 73 -19q10 -7 29.5 -18t27.5 -16l115 -66q3 -1 24.5 -14t33.5 -20q34 -17 57 -33q26 -17 46.5 -49t20.5 -66v-341zM598 701zM293 126v281q0 15 10 25l209 -191l210 191q10 -10 10 -25v0v-281h31v281q0 28 -18.5 47.5t-44.5 19.5h-376q-26 0 -44.5 -19.5
t-18.5 -47.5v-281h32zM685 441l-173 -160l-172 160h345z" />
    <glyph glyph-name="31" unicode="&#xe63f;" 
d="M507 685q56 0 96 -35t40 -83q0 -47 -38 -82l110 -88q77 70 77 167q0 101 -83.5 172.5t-201.5 71.5q-98 0 -175 -52t-100 -132l139 -55q1 48 41 82t95 34zM516 449q-7 -1 -9 -1h6h5zM704 388q-86 60 -197 60v-113v-13q67 0 114.5 -40.5t47.5 -97.5t-47.5 -97.5
t-114.5 -40.5q-63 0 -109.5 36t-52.5 89l-139 -54q26 -87 110 -143.5t191 -56.5q129 0 220 78t91 188q0 61 -30.5 114t-83.5 91z" />
    <glyph glyph-name="huo" unicode="&#xe670;" 
d="M860 202v-46q-2 -5 -2 -6q-13 -69 -14 -72q-31 -102 -115 -174q-66 -57 -144 -75q-3 -1 -55 -10h-45q-6 2 -7 2q-72 4 -136 37q-128 65 -166 191q-1 2 -12 58v43q5 30 5 32q12 64 57 127q4 5 33.5 45t44.5 62q42 64 32 133q-1 5 -2.5 15t-2.5 14h2t1 1q76 -79 61 -221
l5 5q79 107 56 228q-16 84 -70 142q-8 8 -16.5 15.5t-20.5 17t-17 14.5h18q1 0 2 -1q2 -1 3 -1q45 -4 93 -27q94 -46 167 -139q107 -138 119 -292q5 -62 -12 -124q-1 -2 -16 -46q31 14 51 42q54 77 40 183q5 -5 5 -6q37 -57 49 -117q1 0 9 -50zM502 282q-1 0 -3 -1
q-3 -46 -4 -50q-4 -41 -20 -73q-18 -35 -66 -59q-46 -24 -49 -70q-4 -55 35 -85q36 -28 90 -26q83 3 106 78q14 49 2 113q-17 83 -61 141q-1 1 -30 32v0z" />
    <glyph glyph-name="rili" unicode="&#xe77e;" 
d="M721 6h37q16 0 27.5 8.5t11.5 20t-11.5 20t-27.5 8.5h-37q-16 0 -27 -8.5t-11 -20t11 -20t27 -8.5zM721 177h37q16 0 27.5 8.5t11.5 20.5t-11.5 20t-27.5 8h-37q-16 0 -27 -8t-11 -20t11 -20.5t27 -8.5zM493 177h37q16 0 27 8.5t11 20.5t-11 20t-27 8h-37q-16 0 -27.5 -8
t-11.5 -20t11.5 -20.5t27.5 -8.5zM264 177h37q16 0 27.5 8.5t11.5 20.5t-11.5 20t-27.5 8h-37q-16 0 -27.5 -8t-11.5 -20t11.5 -20.5t27.5 -8.5zM493 6h37q16 0 27 8.5t11 20t-11 20t-27 8.5h-37q-16 0 -27.5 -8.5t-11.5 -20t11.5 -20t27.5 -8.5zM264 6h37q16 0 27.5 8.5
t11.5 20t-11.5 20t-27.5 8.5h-37q-16 0 -27.5 -8.5t-11.5 -20t11.5 -20t27.5 -8.5zM800 635h-58v81q1 1 1 2q0 12 -8.5 20t-20 8t-19.5 -8t-9 -19v0v-84h-347v81v2q0 12 -8.5 20t-20 8t-19.5 -8t-8 -19v0v-84h-61q-73 0 -120.5 -50t-47.5 -138v-442q0 -66 44 -115t108 -55
l594 -1q70 0 119 50t49 121v459q0 71 -49 121t-119 50zM911 -12q0 -40 -30 -68t-72 -28h-595q-43 0 -73 28t-30 68v361h800v-361zM911 481v-75h-800v75q0 38 31 67t83 29h58v-85v0q0 -12 8 -19.5t20 -7.5q11 0 19.5 8t8.5 20v2v82h347v-85h1q0 -12 8 -19.5t20 -7.5
q11 0 19.5 8t8.5 20q0 1 -1 2v82h55q45 0 81.5 -28.5t32.5 -67.5z" />
    <glyph glyph-name="miaoshu" unicode="&#xe694;" 
d="M213 727h598q35 0 60 -25t25 -61v-682q0 -36 -25 -61t-60 -25h-598q-35 0 -60 25t-25 61v682q0 36 25 61t60 25v0zM299 535v-86h431v86h-431v0zM299 365v-85h431v85h-431v0zM299 193v-85h322v85h-322v0z" />
    <glyph glyph-name="gerenzhongxin" unicode="&#xe668;" 
d="M859 -75h-692q-45 0 -74.5 27t-29.5 68v20q0 36 23.5 67.5t60.5 45.5l172 76l1 1q40 12 50 22q2 3 2 16.5t-4 22.5q-1 2 -11 17q-89 136 -89 221q0 121 70 208q72 88 174 88t174 -88q70 -86 70 -208q0 -36 -16.5 -79.5t-31 -67t-37.5 -59.5q-20 -30 -21 -34
q-9 -29 -5 -38q12 -11 44 -23l190 -74q37 -13 60.5 -45t23.5 -69v-20q-1 -41 -30 -68t-74 -27v0zM333 192l-171 -76h-1q-26 -9 -42 -30.5t-16 -45.5v-20q0 -27 19 -41.5t45 -14.5h692q26 0 45 14.5t19 41.5v20q0 24 -16.5 46t-41.5 31h-1l-190 74q-40 16 -57 32
q-22 22 -5 77q3 10 26 44q21 33 34.5 55t28.5 61t15 69q0 106 -60 181.5t-144.5 75.5t-144.5 -75.5t-60 -181.5q0 -73 83 -200q10 -15 12 -20q10 -19 9.5 -44.5t-12.5 -38.5q-16 -17 -66 -34v0zM333 192z" />
    <glyph glyph-name="yanzhengma" unicode="&#xe642;" 
d="M848 457v-471h-674v471h22l244 -260l2 -2q29 -29 69 -29t69 29l1 2l244 260h23zM864 505h-61l-259 -276q-14 -15 -35 -15t-35 15l-258 276h-60q-13 0 -22.5 -9.5t-9.5 -22.5v-503q0 -13 9.5 -22.5t22.5 -9.5h706q13 0 22.5 9.5t9.5 22.5v503q1 13 -8 22.5t-22 9.5v0v0z
M799 782v-277q0 -20 14 -34t35 -14v-471h-674v471q20 0 34 14t14 34v277h577zM799 830h-577q-20 0 -34 -14t-14 -34v-277h-16q-13 0 -22.5 -9.5t-9.5 -22.5v-503q0 -13 9.5 -22.5t22.5 -9.5h706q13 0 22.5 9.5t9.5 22.5v503q0 13 -9.5 22.5t-22.5 9.5h-16v277q0 20 -14 34
t-35 14v0v0zM270 529v49h481v-49h-481v0zM270 696h481v-48h-481v48v0zM270 696z" />
    <glyph glyph-name="dijiahongbao" unicode="&#xe62d;" horiz-adv-x="1153" 
d="M1029 832h-878q-59 0 -105 -24.5t-46 -69.5v-208h7.5h6.5q55 0 96.5 -36.5t41.5 -86.5t-43 -86.5t-98 -36.5h-11v-206q0 -49 49.5 -95.5t101.5 -46.5h878q50 0 86.5 45t36.5 97v206q-55 0 -93.5 36t-38.5 87t38.5 87t93.5 36v208q0 46 -34 70t-89 24zM260 87
q0 -7 -5.5 -11.5t-12.5 -4.5t-12 4.5t-5 11.5v65q0 7 5 11.5t12 4.5t12.5 -4.5t5.5 -11.5v-65zM260 228q0 -7 -5.5 -11.5t-12.5 -4.5t-12 4.5t-5 11.5v65q0 6 5 11t12 5t12.5 -5t5.5 -11v-65zM260 369q0 -6 -5.5 -11t-12.5 -5t-12 5t-5 11v65q0 7 5 11.5t12 4.5t12.5 -4.5
t5.5 -11.5v-65zM260 509q0 -6 -5.5 -11t-12.5 -5t-12 5t-5 11v65q0 7 5 11.5t12 4.5t12.5 -4.5t5.5 -11.5v-65zM260 651q0 -7 -5.5 -11.5t-12.5 -4.5t-12 4.5t-5 11.5v65q0 6 5 11t12 5t12.5 -5t5.5 -11v-65zM864 307q19 0 32.5 -12t13.5 -29t-13.5 -29.5t-32.5 -12.5h-152
v-68q0 -17 -13 -29t-32 -12t-32 12t-13 29v68h-151q-19 0 -32.5 12.5t-13.5 29.5t13.5 29t32.5 12h151v41h-151q-19 0 -32.5 12.5t-13.5 29t13.5 29t32.5 12.5h146l-168 148q-13 12 -13 29t13.5 29t32.5 12t32 -12l153 -136l153 136q14 12 33 12t32.5 -12t13.5 -29t-14 -28
l-168 -149h147q19 0 32.5 -12t13.5 -29t-13.5 -29.5t-32.5 -12.5h-152v-41h152v0z" />
    <glyph glyph-name="qiye" unicode="&#xe88e;" 
d="M959 -70h-894q-10 0 -17 7.5t-7 17t7 16.5t17 7h894q10 0 17 -7t7 -16.5t-7 -17t-17 -7.5v0zM959 -70zM321 615h-88q-10 0 -17 7t-7 17t7 16.5t17 6.5h88q10 0 17 -6.5t7 -16.5t-7 -17t-17 -7v0zM321 615zM513 615h-88q-10 0 -17 7t-7 17t7 16.5t17 6.5h88q10 0 17 -6.5
t7 -16.5t-7 -17t-17 -7v0zM513 615zM724 364v88q0 10 7 17t17 7t17 -7t7 -17v-88q0 -10 -7 -17t-17 -7t-17 7t-7 17v0zM724 364zM724 124v89q0 10 7 17t17 7t17 -7t7 -17v-89q0 -10 -7 -17t-17 -7t-17 7t-7 17v0zM724 124zM321 402h-88q-10 0 -17 7t-7 17t7 17t17 7h88
q10 0 17 -7t7 -17t-7 -17t-17 -7v0zM321 402zM513 402h-88q-10 0 -17 7t-7 17t7 17t17 7h88q10 0 17 -7t7 -17t-7 -17t-17 -7v0zM513 402zM321 189h-88q-10 0 -17 7t-7 17t7 17t17 7h88q10 0 17 -7t7 -17t-7 -17t-17 -7v0zM321 189zM513 189h-88q-10 0 -17 7t-7 17t7 17
t17 7h88q10 0 17 -7t7 -17t-7 -17t-17 -7v0zM513 189zM97 -46v812q0 30 21 51t51 21h406q30 0 51 -21t21 -51v-796q0 -9 -7 -16t-17 -7t-17 7t-7 16v796q0 10 -7 17t-17 7h-406q-10 0 -17 -7t-7 -17v-812h-48zM626 615h220q30 0 51 -21t21 -51v-576q0 -10 -7 -17t-17 -7
t-17 7t-7 17v576q0 10 -7 17t-17 7h-220v48z" />
    <glyph glyph-name="13" unicode="&#xe64f;" 
d="M881 176q0 -20 -12 -36q-53 -70 -100 -108q-2 -1 -4.5 -3t-3.5 -3q-24 -19 -60 -13q-69 10 -145 57q-78 49 -167 134q-104 100 -166 190q-48 69 -68 132q-12 37 -12 68q0 12 5 25q8 18 32 45q37 40 87 78q26 20 58 12q19 -5 29 -21q6 -8 40 -60t52 -79q15 -24 3 -56
q-3 -10 -11 -22q-21 -35 -53 -84q-3 -5 1 -10q77 -97 174 -175q6 -5 12 0q4 4 27 24t35 31q22 20 46 23.5t41 -8.5q19 -13 65.5 -44t71.5 -48q24 -16 23 -49z" />
    <glyph glyph-name="ren1" unicode="&#xe6c9;" 
d="M653 374q36 33 57 79.5t21 100.5q0 96 -63 164.5t-152 68.5t-152.5 -68.5t-63.5 -164.5q0 -97 64 -165q6 -6 17.5 -15.5t43.5 -25t64.5 -21.5t77.5 4t86 43v0zM797 213l-117 107q-17 -14 -36 -25.5t-53 -22t-70 -11.5t-84.5 14t-97.5 47q-27 -20 -52.5 -43t-59 -57
t-51 -69t-12.5 -62q0 -4 1 -9.5t9.5 -19.5t22.5 -25t44.5 -20.5t71.5 -10.5q18 -1 48 -3t109 -3.5t143.5 1.5t126.5 15t83 33v0q32 23 28 66q-4 45 -54 98v0zM797 213z" />
    <glyph glyph-name="ziliao" unicode="&#xe630;" 
d="M352 352q-66 0 -113 47t-47 113t47 113t113 47t113 -47t47 -113t-47 -113t-113 -47zM352 608q-40 0 -68 -28t-28 -68t28 -68t68 -28t68 28t28 68t-28 68t-68 28zM512 92l-28 173l-79 25l20 60l115 -39l34 -211zM192 92l-64 10l34 212l115 38l20 -60l-79 -25zM640 608h128
v-64h-128v64zM640 480h256v-64h-256v64zM640 352h256v-64h-256v64zM640 224h256v-64h-256v64zM352 32h320v-64h-320v64zM1024 -32h-288v64h224v704h-896v-704h224v-64h-288v832h1024v-832z" />
    <glyph glyph-name="xiugaimima" unicode="&#xe65a;" 
d="M199 432q-19 0 -32.5 -13t-13.5 -32v-398q0 -19 13.5 -32t32.5 -13h642q19 0 32.5 13t13.5 32v398q0 19 -13.5 32t-32.5 13h-642zM841 -87h-642q-32 0 -54 22t-22 54v398q0 32 22 54t54 22h642q32 0 54 -22t22 -54v-398q0 -32 -22 -54t-54 -22v0zM765 455h-31v150
q0 89 -64 153t-153 64q-87 0 -149 -62t-62 -149v-156h-30v156q0 100 70.5 170.5t170.5 70.5q102 0 175 -72.5t73 -174.5v-150zM520 318q-25 0 -43 -18t-18 -43q0 -40 37 -57l9 -4v-109q0 -15 15 -15t15 15v109l10 4q16 7 26 22.5t10 34.5q0 25 -18 43t-43 18zM520 43
q-19 0 -32.5 13t-13.5 33v88q-46 28 -46 80q0 38 27 64.5t65 26.5t65 -26.5t27 -64.5q0 -52 -46 -80v-88q0 -20 -13 -33t-33 -13v0z" />
    <glyph glyph-name="xiangmu" unicode="&#xe645;" 
d="M512 17l-383 176l-59 29q0 -20 6 -41.5t19 -28.5l375 -168q25 -12 41 -12t43 12l375 168q12 5 18.5 27.5t6.5 42.5l-59 -29zM95 503l375 -168q25 -11 41 -11t43 11l375 168q21 10 21 40.5t-21 42.5l-375 197q-23 13 -40.5 13t-43.5 -13l-375 -197q-21 -14 -21.5 -42.5
t21.5 -40.5zM512 750l1 -1l382 -204l-383 -161l-383 161zM513 749l-1 1zM95 327l375 -167q25 -12 41 -12t43 12l375 167q12 6 18.5 28.5t6.5 42.5l-59 -29l-383 -176l-383 176l-59 29q0 -21 6 -42.5t19 -28.5z" />
    <glyph glyph-name="momentmessage" unicode="&#xe6c0;" horiz-adv-x="1093" 
d="M684 76q-28 0 -65.5 -10t-61.5 -24l-235 -137q-49 -28 -77.5 -8.5t-20.5 75.5l10 71q2 14 -7 23.5t-23 9.5h-67q-57 0 -97 40t-40 97v547q0 56 40 96t97 40h819q56 0 96 -40t40 -96v-547q0 -57 -40 -97t-96 -40h-272zM239 144q28 0 45 -19.5t13 -47.5l-12 -74
q-4 -28 10 -37t37 6l208 135q24 16 61 26.5t65 10.5h290q29 0 49 20t20 48v548q0 28 -20 48t-48 20h-820q-28 0 -48 -20t-20 -48v-548q0 -28 20 -48t48 -20h102zM273 384q28 0 48 20t20 48.5t-20 48.5t-48 20t-48 -20t-20 -48.5t20 -48.5t48 -20zM546 384q28 0 48 20
t20 48.5t-20 48.5t-48 20t-48 -20t-20 -48.5t20 -48.5t48 -20zM819 384q28 0 48 20t20 48.5t-20 48.5t-48 20t-48 -20t-20 -48.5t20 -48.5t48 -20z" />
    <glyph glyph-name="weixin1" unicode="&#xe648;" horiz-adv-x="1101" 
d="M967 42l70 -170l-172 123q-51 -15 -102 -15q-92 0 -170 41t-123.5 111t-45.5 153t45.5 153t123.5 111t169.5 41t169.5 -41t123.5 -111t45.5 -153q0 -72 -35.5 -136t-98.5 -107zM762.5 546q-122.5 0 -209 -76.5t-86.5 -184.5t86.5 -184.5t209.5 -76.5q50 0 99 16l10 3
l68 -48l-27 65l16 10q61 36 95 93.5t34 121.5q0 108 -86.5 184.5t-209 76.5zM872.5 328q-17.5 0 -30 13t-12.5 31t12.5 31t30 13t30 -13t12.5 -31t-12.5 -31t-30 -13zM655 328q-18 0 -30.5 13t-12.5 31t12.5 31t30.5 13t30.5 -13t12.5 -31t-12.5 -31t-30.5 -13zM567 645
q0 -21 -14.5 -36t-35 -15t-35.5 15t-15 36t15 36t35.5 15t35 -15t14.5 -36zM213 645q0 21 15 36t35.5 15t35 -15t14.5 -36t-14.5 -36t-35 -15t-35.5 15t-15 36zM392 852q-95 0 -175.5 -41.5t-127 -112.5t-46.5 -155q0 -76 40.5 -144t111.5 -111l16 -10l-35 -85l88 63l10 -3
q32 -11 68 -15q3 -22 9 -46q-41 4 -79 15l-193 -137l78 190q-74 50 -115.5 124.5t-41.5 158.5q0 96 52.5 177t143 128.5t196.5 47.5q121 0 219 -60.5t143 -157.5q-23 -1 -46 -4q-43 80 -128 129t-188 49z" />
    <glyph glyph-name="shoujishouye" unicode="&#xe667;" 
d="M718 896h-412q-40 0 -68.5 -28.5t-28.5 -68.5v-828q0 -40 28.5 -69.5t68.5 -29.5h412q40 0 68.5 29.5t28.5 69.5v828q0 40 -28.5 68.5t-68.5 28.5zM461 821h116q8 0 13.5 -6t5.5 -14t-5.5 -13.5t-13.5 -5.5h-116q-8 0 -14 5.5t-6 13.5t6 14t14 6zM519 -87q-24 0 -41 17
t-17 41t17 41t41 17t41 -17t17 -41t-17 -41t-41 -17zM769 70h-513v652h513v-652z" />
    <glyph glyph-name="dianhua" unicode="&#xe7b5;" 
d="M710 -46q59 0 105 21q113 50 125 105q8 31 -22 67q-11 13 -25 28t-39.5 38.5t-53 38.5t-49.5 16q-18 -1 -31.5 -6t-20 -10.5t-17.5 -16.5q-25 -24 -44 -32q-30 -12 -57 -12h-2q-59 0 -119.5 40t-100.5 100.5t-40 119.5q-1 28 12 59q8 19 32 44q11 11 16.5 17.5t10.5 20
t6 30.5q-1 23 -16 50.5t-38.5 53t-38.5 39.5t-28 25q-36 30 -67 22q-55 -12 -105 -125q-22 -48 -21 -110q2 -122 53.5 -236.5t135 -198t198 -135t236.5 -53.5h5v0zM751 225q23 -1 63 -34.5t71 -71.5q16 -19 13 -30q0 -2 -1.5 -5t-8 -11t-16.5 -16t-29.5 -20t-45.5 -23
q-37 -17 -87 -17h-5q-111 2 -217.5 50.5t-185 127t-127 185t-50.5 217.5q-1 53 17 92q11 26 23 45.5t20 29.5t16 16.5t11 8t5 1.5q11 3 30 -13q38 -31 71.5 -71t34.5 -64q-1 -13 -4.5 -19t-16.5 -19q-30 -31 -41 -57q-16 -40 -15 -77q1 -69 46.5 -139.5t116 -116
t139.5 -47.5h3q36 0 74 16q26 11 57 41q13 13 19 16.5t20 4.5v0z" />
    <glyph glyph-name="register-copy" unicode="&#xe6a8;" 
d="M1016 385.5q0 -102.5 -40 -196t-107.5 -161t-161 -107.5t-196.5 -40t-196.5 40t-161 107.5t-107.5 161t-40 196t40 196.5t107.5 161.5t161 107.5t196.5 40t196.5 -40t161 -107.5t107.5 -161.5t40 -196.5zM576 96q-83 48 -83 148q0 26 9.5 50t27 53.5t23.5 43.5
q5 11 18 34q9 16 14 20q11 10 15 26t0 29q-5 13 -11 43q-1 6 -4.5 29.5t-7.5 35.5q-14 50 -58 74.5t-92 18t-78 -37.5q-34 -35 -42 -99q-6 -49 -10 -59q-12 -38 15 -62q7 -6 9 -14q9 -31 31 -49q21 -16 17 -51q-3 -35 -48 -53q-13 -5 -37.5 -13t-36.5 -13q-39 -15 -42 -42
q-1 -16 -1 -83q0 -20 24 -24q23 -4 54 -8q146 -21 262 -10q1 0 43 7q-10 6 -11 6zM817 243q0 58 -41 99t-99 41v0q-58 0 -99.5 -41t-41.5 -99v0q0 -59 41.5 -100t99.5 -41v0q58 0 99 41t41 100v0zM734 219h12q13 0 21 6.5t8 17.5t-8 17.5t-21 7.5h-6h-6q-6 -2 -10 0t-7.5 0
t-5.5 0t-4 0.5t-3 1.5t-1.5 2.5t-1 4t-0.5 6v7.5v10q0 11 -2 19q-4 21 -25 20q-19 -2 -21 -24q-1 -17 0 -30q1 -10 -3.5 -14t-14.5 -3h-19q-30 -1 -31 -24q-1 -12 6 -17.5t24 -6.5q28 -2 32.5 -7t5.5 -32q0 -33 23 -33q24 0 25 32v3.5v3.5q1 27 3.5 29.5t29.5 2.5z" />
    <glyph glyph-name="jianli" unicode="&#xe6a9;" 
d="M512 832q-91 0 -174 -35.5t-143 -95.5t-95.5 -143t-35.5 -174t35.5 -174t95.5 -143t143 -95t174 -35t174 35t143 95t95 143t35 174t-35 174t-95 143t-143 95.5t-174 35.5zM606 609q0 8 6 14.5t14 6.5t14 -6.5t6 -14.5v-57q0 -8 -6 -14.5t-14 -6.5t-14 6.5t-6 14.5v57z
M491 609q0 8 6 14.5t14 6.5t14 -6.5t6 -14.5v-57q0 -8 -6 -14.5t-14 -6.5t-14 6.5t-6 14.5v57zM375 609q0 8 6 14.5t14.5 6.5t14.5 -6.5t6 -14.5v-57q0 -8 -6 -14.5t-14.5 -6.5t-14.5 6.5t-6 14.5v57zM731 563v-403q0 -12 -5.5 -18t-11.5 -7h-5h-395q-11 0 -17 6t-6 12v6
v404q0 12 6 17.5t11 5.5l6 -1h42q-1 -23 2.5 -38.5t7.5 -22.5t11.5 -11t10 -4h7.5q26 1 38.5 20t11.5 37l-1 19h23q0 -27 4.5 -44t13 -22.5t13.5 -7t11 -1.5h2q24 4 35 23t10 36l-1 17h23q1 -26 7 -43t14.5 -23.5t14 -8t12.5 -1.5q21 1 30.5 20t9.5 37l-1 19q18 0 44 -1
q11 1 16.5 -4.5t5.5 -11.5v-6zM676 434q0 8 -5.5 14t-13.5 6h-290q-8 0 -14 -6t-6 -14v-4q0 -8 6 -14t14 -6h290q8 0 13.5 6t5.5 14v4v0v0zM675 335q0 8 -5.5 14t-13.5 6h-291q-8 0 -13.5 -6t-5.5 -14v-4q0 -8 5.5 -14t13.5 -6h291q8 0 13.5 6t5.5 14v4v0v0zM675 236
q0 8 -5.5 14t-13.5 6h-291q-8 0 -13.5 -6t-5.5 -14v-4q0 -8 5.5 -14t13.5 -6h291q8 0 13.5 6t5.5 14v4v0v0z" />
    <glyph glyph-name="xinxi" unicode="&#xe674;" 
d="M929 751q-33 38 -86 38h-639q-54 0 -95 -36q-45 -38 -45 -93v-547q0 -54 44 -95q42 -39 96 -39h639q53 0 86 41q31 38 31 93v547q0 55 -31 91zM204 746h639q34 0 53 -23t21 -56l-394 -203l-414 214q8 29 36 48.5t59 19.5zM843 22h-639q-37 0 -67 28t-30 63v518l416 -215
l394 204v-507q0 -37 -20 -64t-54 -27z" />
    <glyph glyph-name="cheyaochi" unicode="&#xe6aa;" 
d="M791 535q-40 0 -72.5 21t-49.5 56h-245q-23 0 -40 17t-17 41t17 41t40 17h245q17 34 49.5 55.5t72.5 21.5q56 0 95.5 -39.5t39.5 -95.5t-39.5 -95.5t-95.5 -39.5zM830 718q0 12 -8.5 20.5t-20.5 8.5t-20.5 -8.5t-8.5 -20.5v-96q0 -12 8.5 -20.5t20.5 -8.5t20.5 8.5
t8.5 20.5v96zM769 397q6 3 12 3h58q12 0 20.5 -8.5t8.5 -20.5t-8.5 -20.5t-20.5 -8.5h-29l58 -77v-97v-96v0v-20q0 -24 -17 -40.5t-41 -16.5t-41 16.5t-17 40.5v20v0h-57v0h-386v0h-58v0v-20q0 -24 -17 -40.5t-41 -16.5t-41 16.5t-17 40.5v20v0v0v96v97l58 77h-29
q-12 0 -20.5 8.5t-8.5 20.5t8.5 20.5t20.5 8.5h58q6 0 12 -3l75 99h386zM695 187h57q16 0 27.5 11.5t11.5 27.5t-11.5 27.5t-27.5 11.5h-57q-16 0 -27.5 -11.5t-11.5 -27.5t11.5 -27.5t27.5 -11.5zM212 226q0 -16 11.5 -27.5t27.5 -11.5h58q16 0 27 11.5t11 27.5t-11 27.5
t-27 11.5h-58q-16 0 -27.5 -11.5t-11.5 -27.5zM333 458l-87 -135h508l-87 135h-334z" />
    <glyph glyph-name="app" unicode="&#xe6e4;" 
d="M868 546h-194v194q0 26 -19 45t-46 19h-452q-26 0 -45 -18.5t-19 -45.5v-646q0 -27 19 -46t45 -19h388q0 -27 19 -45.5t45 -18.5h259q26 0 45 18.5t19 45.5v452q0 27 -18.5 46t-45.5 19v0zM367 62q-6 0 -11 4.5t-5 11t5 11.5t11.5 5t11 -5t4.5 -11.5t-4.5 -11t-11.5 -4.5
v0zM577 481v-355h-420q-13 0 -22.5 9.5t-9.5 22.5v582q0 13 9.5 22.5t22.5 9.5h452q14 0 23.5 -9.5t9.5 -22.5v-194q-27 0 -46 -19t-19 -46v0zM900 29q0 -13 -9.5 -22.5t-22.5 -9.5h-226q-13 0 -23 11t-10 25v448q0 14 9.5 23.5t23.5 9.5h226q13 0 22.5 -9.5t9.5 -23.5v-452
v0zM900 29z" />
    <glyph glyph-name="specials-car" unicode="&#xe62b;" 
d="M457 728q72 -39 151 -39q31 0 63 6q48 -104 152 -153q-22 -112 34 -213q-84 -78 -98 -192q-114 -14 -192 -97q-72 39 -151 39q-31 0 -63 -6q-48 104 -152 153q22 112 -34 213q84 78 98 192q114 14 192 97zM441 830q-78 -128 -221 -128q-14 0 -28 1q13 -163 -127 -248
q107 -125 44 -276q160 -38 198 -197q56 23 109 23q88 0 167 -67q78 128 221 128q14 0 28 -1q-13 163 127 248q-107 125 -44 276q-160 38 -198 197q-56 -23 -109 -23q-88 0 -167 67v0zM462 397.5q22 29.5 22 74.5q-1 47 -25 73.5t-61 27.5q-42 -1 -66 -28.5t-24 -72.5
q0 -43 20.5 -73.5t67.5 -31.5q44 1 66 30.5zM365 466q0 22 8 40t24 19q15 -1 21.5 -17.5t6.5 -35.5q-2 -60 -30 -59q-31 3 -30 53zM590 588l-200 -416h41l201 416h-42zM699.5 364q-23.5 27 -60.5 27q-43 -1 -66.5 -28.5t-23.5 -72.5q-1 -42 20 -72.5t68 -31.5q44 1 65.5 30
t21.5 74q-1 47 -24.5 74zM637 230q-32 3 -30 53q-1 22 7 40t25 19q14 -1 21 -17t7 -36q-2 -60 -30 -59z" />
    <glyph glyph-name="chimabiao" unicode="&#xe691;" 
d="M469 778h270q56 0 95 -39t39 -96v-266q0 -10 7 -17q48 -43 66 -104.5t7 -120.5t-54.5 -110t-111.5 -74q-91 -31 -182 13q-11 5 -22 5h-383q-59 0 -97.5 39t-38.5 97v270v271q0 54 38.5 93t93.5 39h273zM350 584h12h174h293q6 0 8.5 2t2.5 8q-1 12 -1 46q1 48 -31.5 76.5
t-73.5 28.5q-40 -1 -371 -1h-13v-160zM839 550h-489v-160h12h209q9 0 19 6q119 63 240 2l9 -4v156zM316 550h-218v-159h218v159zM98 197h217v159h-217v-159zM315 744h-9h-110q-30 0 -54.5 -17t-36.5 -44q-6 -15 -7.5 -33t0 -32.5t-0.5 -32.5q7 -1 8 -1h203q8 0 8 10v47v47
v47zM98 163v-18.5v-20.5v-18q0 -45 29 -74t74 -29h104h10v160h-217zM350 4h197q-70 65 -78 159h-119v-159zM469 197q5 92 71 159h-190v-159h119zM662 168q-8 9 -20 20t-14 12l29 29l1 -1l1 -1l1 -1l1 -1l1 -1l1 -1l1 -1l1 -1l1 -1l1 -1l1 -1l1 -1l1 -1l1 -1l1 -1l1 -1l1 -1
l1 -1l1 -1l1 -1l1 -1l1 -1l1 -1l1 -1l1 -1l1 -1l1 -2l1 -1l1 -1l1 -1l1 -1l1 -1l1 -1l1 -1h1l1 -1l1 -1l1 -1l1 -1l1 -1l1 -1l1 -1l1 -1l1 -1l1 -1l1 -1l1 -1l1 -1l1 -1l1 -1l1 -1l1 -1l1 -1l1 -1l1 -1l1 -1l1 -1l1 -1l1 -1l1 -1l1 -1l1 -1l1 -1l1 -1l1 -1l1 -1l1 -1
q2 1 5.5 5t4.5 6q-25 23 -68 66l16.5 16.5l13.5 13.5q21 -23 30 -33q8 6 13 10q-25 25 -33 32l28 28h1l1 -1l1 -1l1 -1l1 -1l1 -1l1 -1l1 -1l1 -1l1 -1l1 -1l1 -1l1 -1l1 -1l1 -1l1 -1l1 -1l1 -1l1 -1l1 -1l1 -1l1 -1l1 -1l1 -1l1 -1l1 -1l1 -1l1 -1l1 -1l1 -1v-1l1 -1l1 -1
l1 -1l1 -1l1 -1l1 -1l1 -1l1 -1l1 -1l1 -1l1 -1l1 -1l1 -1l1 -1l1 -1l1 -1l1 -1l1 -1l1 -1l1 -1l1 -1l1 -1l1 -1l1 -1l1 -1l1 -1l1 -1l1 -1l1 -1l1 -1l1 -1l1 -1l1 -1l1 -1l1 -1l1 -1l1 -1l1 -1l1 -1l1 -1l1 -1l1 -1l1 -1l1 -1l1 -1l1 -1l1 -1l1 -1l1 -1l1 -1l1 -1l1 -1
l1 -1l1 -1l1 -1l1 -1l1 -1l1 -1l1 -1l1 -1l1 -1l1 -1l1 -1l1 -1l1 -1l1 -1l1 -1l1 -1l1 -1l1 -1l1 -1l1 -1l1 -1l1 -1l1 -1l1 -1l1 -1l1 -1l1 -1l1 -1l-1 -1l-1 -1l-1 -1l-1 -1l-1 -1l-1 -1l-1 -1l-1 -1l-1 -1l-1 -1l-1 -1l-1 -1l-1 -1l-1 -1l-1 -1l-1 -1l-1 -1l-1 -1l-1 -1
l-1 -1l-1 -1l-1 -1l-1 -1l-1 -1l-1 -1l-1 -1l-1 -1l-1 -1l-1 -1l-1 -1l-1 -1l-1 -1l-1 -1l-1 -1l-1 -1l-1 -1l-1 -1l-1 -1l-1 -1l-1 -1l-1 -1l-1 -1l-1 -1l-1 -1l-1 -1l-1 -1l-1 -1l-1 -1l-1 -1l-1 -1l-1 -1l-1 -1l-1 -1l-1 -1l-1 -1l-1 -1l-1 -1l-1 -1l-1 -1l-1 -1l-1 -1
l-1 -1l-1 -1l-1 -1l-1 -1l-1 -1l-1 -1l-1 -1l-1 -1l-1 -1l-1 -1l-1 -1l-1 -1l-1 -1l-1 -1l-1 -1l-1 -1l-1 -1l-1 -1l-1 -1l-1 -1l-1 -1l-1 -1l-1 -1l-1 -1l-1 -1l-1 -1l-1 -1l-1 -1l-1 -1l-1 -1l-1 -1l-1 -1l-1 -1l-1 -1l-1 -1l-1 -1l-1 -1l-1 -1l-1 -1l-1 -1l-1 -1l-1 -1
l-1 -1l-1 -1l-1 -1l-1 -1l-1 -1l-1 -1l-1 -1l-1 -1l-1 -1l-1 -1l-1 -1l-1 -1l-1 -1l-1 -1l-1 -1l-1 -1l-1 -1l-1 -1l-1 -1l-1 -1l-1 -1l-1 -1l-1 -1l-1 -1l-1 -1l-1 -1l-1 -1l-1 -1l-1 -1l-1 -1l-1 -1l-1 -1l-1 -1l-1 -1l-1 -1l-1 -1l-1 -1l-1 -1l-1 -1l-1 -1l-1 -1l-1 -1
l-1 -1l-1 -1l-1 -1l-1 -1l-1 -1l-1 -1l-1 -1l-1 -1l-1 -1l-1 -1l-1 -1l-1 -1l-1 -1l-1 -1l-1 -1l-1 -1l-1 -1l-1 -1l-1 -1l-1 -1l-1 -1l-1 -1l-1 -1l-1 -1l-1 -1l-1 -1l-1 -1l-1 -1l-1 -1l-1 -1l-1 -1l-1 -1l-1 -1l-1 -1l-1 -1l-1 -1l-1 -1l-1 -1l-1 -1l-1 -1l-1 -1l-1 -1
l-1 -1l-1 -1l-1 -1l-1 -1l-1 -1l-1 -1l-1 -1l-1 -1l-1 -1l-1 -1l-1 -1l-1 -1l-1 -1l-1 -1l-1 -1l-1 -1l-1 -1l-1 -1l-1 -1l-1 -1l-1 -1l-1 -1l-1 -1l-1 -1l-1 -1l-1 -1q10 -7 21 4l205 205l6 7l-130 130l-6 -5l-210 -210q-6 -7 -6 -10.5t8 -11.5q10 11 18 22q6 -6 17 -17.5
t16 -16.5q1 1 5 4.5t7 5.5q-23 22 -33 31l14 14t15 17l1 -1l1 -1l1 -1l1 -1l1 -1l1 -1l1 -1l1 -1l1 -1l1 -1l1 -1l1 -1l1 -1l1 -1l1 -1l1 -1l1 -1l1 -1l1 -1l1 -1l1 -1l1 -1l1 -1l1 -1l1 -1l1 -1l1 -1l1 -1l1 -1l1 -1l1 -1l1 -1l1 -1l1 -1l1 -1l1 -1l1 -1l1 -1l1 -1l1 -1
l1 -1l1 -1l1 -1l1 -1l1 -1l1 -1l1 -1l1 -1l1 -1l1 -1l1 -1l1 -1l1 -1l1 -1l1 -1l1 -1l1 -1l1 -1l1 -1l1 -1l1 -1l1 -1l1 -1l1 -1l1 -1l1 -1l2 -2l4.5 4.5l5.5 5.5q-14 12 -37 36q-22 21 -31 31l30 30q4 -5 10 -11l11 -11t10 -11q2 2 6 5t7 5z" />
    <glyph glyph-name="right" unicode="&#xe617;" 
d="M301 751l456 -379l-456 -379v758z" />
    <glyph glyph-name="xinxi1" unicode="&#xe675;" 
d="M131 107q-32 0 -55 23.5t-23 56.5v640l-27 -27h867q32 0 55 -23.5t23 -56.5v-640l27 27h-473h-8l-6 -5l-225 -151q-9 -6 -11.5 -16.5t3.5 -20t17 -11.5t20 4l225 151l-15 -5h473h26v27v640q0 55 -38.5 94t-92.5 39h-867h-26v-26v-640q0 -56 38.5 -95t92.5 -39h137
q11 0 18.5 8t7.5 19t-7.5 19t-18.5 8h-137zM368 453.5q0 44.5 -31 75.5t-74.5 31t-74 -31t-30.5 -75.5t30.5 -75.5t74 -31t74.5 31t31 75.5zM210 453q0 22 15.5 38t37 16t37 -16t15.5 -38t-15.5 -37.5t-37 -15.5t-37 15.5t-15.5 37.5zM630 453.5q0 44.5 -30.5 75.5t-74 31
t-74.5 -31t-31 -75.5t31 -75.5t74.5 -31t74 31t30.5 75.5zM473 453q0 22 15 38t37 16t37.5 -16t15.5 -38t-15.5 -37.5t-37.5 -15.5t-37 15.5t-15 37.5zM893 453.5q0 44.5 -31 75.5t-74.5 31t-74 -31t-30.5 -75.5t30.5 -75.5t74 -31t74.5 31t31 75.5zM735 453q0 22 15.5 38
t37 16t37 -16t15.5 -38t-15.5 -37.5t-37 -15.5t-37 15.5t-15.5 37.5z" />
    <glyph glyph-name="xuehao" unicode="&#xe677;" 
d="M512 -63q-73 0 -153.5 52t-211.5 173q-29 28 -47.5 72.5t-18.5 78.5v359q0 36 26 67.5t64 42.5q165 49 341 49t341 -49q38 -11 64 -43t26 -67v-359q0 -34 -18.5 -78.5t-47.5 -71.5q-131 -121 -211.5 -173.5t-153.5 -52.5v0zM512 795q-168 0 -328 -48q-26 -7 -44.5 -29
t-17.5 -46v-359q0 -28 15.5 -65.5t39.5 -59.5q124 -115 198 -165t136.5 -50t137 50t199.5 165q23 22 38.5 59.5t15.5 65.5v359q0 23 -18 45.5t-43 29.5q-161 48 -329 48v0zM512 46q-44 0 -111.5 50.5t-166.5 142.5q-11 10 -21.5 34.5t-10.5 39.5v350q0 13 14 17
q145 42 296.5 42t295.5 -42q14 -4 14 -17v-350q0 -15 -10.5 -39.5t-22.5 -35.5q-99 -91 -166 -141.5t-111 -50.5v0zM243 650v-337q0 -8 7.5 -26t12.5 -23q196 -181 249 -181t248 180q6 6 13.5 24t7.5 26v337q-268 74 -538 0v0zM508 337h-37l-123 171q-5 7 -8 14h-1
q1 -7 1 -31v-154h-31v220h39l120 -169l10 -15v0q-1 10 -1 32v152h31v-220zM555 413q0 39 24.5 61.5t65.5 22.5q39 0 61.5 -21.5t22.5 -59.5q0 -37 -24 -60t-64 -23q-39 0 -62.5 22t-23.5 58zM587 414q0 -27 15 -42.5t41 -15.5q27 0 40.5 15t13.5 44t-13.5 44t-40.5 15
q-26 0 -41 -16t-15 -44z" />
    <glyph glyph-name="wenhao" unicode="&#xe697;" horiz-adv-x="1026" 
d="M513.5 896q-104.5 0 -199 -40.5t-163 -109t-109 -163.5t-40.5 -199t40.5 -199t109 -163.5t163 -109t199 -40.5t199 40.5t163.5 109t109.5 163.5t40.5 199t-40.5 199t-109.5 163.5t-163.5 109t-199 40.5zM510 28q-23 0 -39 16.5t-16 39.5t16 39.5t39 16.5t39.5 -16.5
t16.5 -39.5t-16.5 -39.5t-39.5 -16.5zM711 477.5q-15 -31.5 -64 -78.5q-49 -48 -65.5 -68t-24.5 -47.5t-7 -74.5h-86q0 55 8.5 87.5t26.5 57t63.5 71.5t59 68.5t13.5 64t-30.5 75t-87.5 32.5q-130 0 -130 -154h-86q2 70 16.5 107t47 65.5t72 42.5t82.5 14q89 0 148 -52.5
t59 -139.5q0 -39 -15 -70.5z" />
    <glyph glyph-name="gongsisvgtubiaozongji24" unicode="&#xe646;" 
d="M704 760q-70 72 -168 72t-168 -72t-70 -174t70 -175q31 -32 71 -50q-109 -28 -189 -109q-56 -58 -88 -133.5t-34 -160.5v-1v0v-1v0v-1q0 -7 5 -12t11.5 -5t11.5 5t5 12v0v1v0.5v1.5q1 77 30.5 147t81.5 122.5t119.5 82t143.5 29.5h2q97 1 166 72q70 73 70 175t-70 174z
M681 435.5q-60 -62.5 -145 -62.5t-145 62.5t-60 150.5t60 150t145 62t145 -62t60 -150t-60 -150.5zM785 76l106 110q11 12 0 24q-5 5 -12 5t-11 -5l-106 -110l-105 110q-5 5 -12 5t-11 -5q-12 -12 0 -24l105 -110l-105 -110q-12 -12 0 -24q4 -5 11 -5t12 5l105 110l106 -110
q4 -5 11 -5t12 5q11 12 0 24z" />
    <glyph glyph-name="xiangxiajiantou" unicode="&#xe602;" 
d="M966 573q-7 7 -17.5 7t-17.5 -7l-416 -416l-425 416q-8 7 -18 7t-17.5 -7t-7.5 -17.5t7 -17.5l442 -432q7 -8 17.5 -8t17.5 8l435 432q15 20 0 35z" />
    <glyph glyph-name="rili1" unicode="&#xe683;" 
d="M791 776h-56v56h-56v-56h-336v56h-56v-56h-56q-46 0 -79 -33t-33 -79v-616q0 -46 33 -79t79 -33h560q46 0 79 33t33 79v616q0 46 -33 79t-79 33zM231 720h56v-56h56v56h336v-56h56v56h56q23 0 39.5 -16.5t16.5 -39.5v-112h-672v112q0 23 16.5 39.5t39.5 16.5zM791 -8
h-560q-23 0 -39.5 16.5t-16.5 39.5v448h672v-448q0 -23 -16.5 -39.5t-39.5 -16.5zM287 384h448v-56h-448v56zM287 214h448v-56h-448v56z" />
    <glyph glyph-name="baoxian" unicode="&#xe7dd;" 
d="M471 610h213v-108h-213v108zM911 684q-101 12 -215 52t-185 97q-72 -57 -185.5 -97t-214.5 -52q-1 -8 -1 -22t1.5 -58t6 -87.5t16.5 -104.5t30 -115.5t49.5 -113t71 -105t98 -85t128.5 -57.5q256 70 353 381q53 171 47 357v10zM348 156h-38v292q-22 -42 -47 -78
q-7 22 -16 44q70 105 109 254l39 -11q-22 -70 -47 -130v-371zM747 195q-99 60 -151 162v-203h-38v205q-64 -115 -159 -174q-13 14 -30 32q94 51 152 143h-138v36h175v71h-87v-24h-40v202h293v-198h-40v20h-88v-71h173v-36h-143q49 -80 147 -126q-16 -23 -26 -39z" />
    <glyph glyph-name="youhuiquan3" unicode="&#xe631;" horiz-adv-x="1025" 
d="M1006 574h-874q-55 0 -93.5 -35.5t-38.5 -85.5v-459q0 -51 38.5 -86.5t93.5 -35.5h876q-10 25 -10 39q-1 6 6 17t13 18l7 8v43q-26 28 -26 43q0 6 6.5 16.5t12.5 18.5l7 7v43q-26 29 -26 43q0 7 6.5 17.5t12.5 17.5l7 8v43q-26 28 -26 43q0 6 6.5 17t12.5 18l7 8v42
q-26 29 -26 43q0 7 6.5 17.5t12.5 18.5l7 7v43q-26 29 -26 43q-1 6 1.5 11.5t4.5 6.5l2 2v0zM952 519v-51q-27 -28 -27 -43q0 -6 6.5 -17t13.5 -18l7 -8v-42q-27 -29 -27 -43q0 -7 6.5 -17.5t13.5 -18.5l7 -7v-43q-27 -29 -27 -43q0 -6 6.5 -17t13.5 -18l7 -8v-43
q-27 -28 -27 -43q0 -6 6.5 -16.5t13.5 -18.5l7 -8v-44l-9 -24h-819q-22 0 -43 25t-21 57v458q1 15 16.5 33t31.5 18h844v0zM952 519zM520 136v0v1h-104v63h104v0v0q9 0 15.5 6.5t6.5 16t-6.5 16t-15.5 6.5v0v0h-89l97 179v0q6 8 6 17q0 12 -8.5 20.5t-20.5 8.5
q-21 0 -28 -19v0q-84 -164 -88 -175h-1l-92 175v0q-7 19 -27 19q-12 0 -20.5 -8.5t-8.5 -20.5q0 -9 5 -16v0l97 -180h-90q-10 0 -16.5 -6.5t-6.5 -16t6.5 -16t16.5 -6.5v0h107v-63h-107v-1q-10 0 -16.5 -6.5t-6.5 -15.5t6.5 -16t16.5 -7v0h107v-91v0v-6q0 -11 8 -19.5
t20 -8.5t20 8.5t8 19.5v6v0v91h104v0v0q10 0 16.5 7t6.5 16t-6.5 15.5t-15.5 6.5v0zM520 136zM703 454q0 11 9 18.5t22 7.5v0q12 0 21.5 -7.5t9.5 -18.5v-38q0 -10 -9.5 -17.5t-21.5 -7.5v0q-13 0 -22 7.5t-9 17.5v38v0zM703 454zM703 314q0 11 9 18.5t22 7.5v0
q12 0 21.5 -7.5t9.5 -18.5v-38q0 -10 -9.5 -17.5t-21.5 -7.5v0q-13 0 -22 7.5t-9 17.5v38v0zM703 314zM703 174q0 10 9 17.5t22 7.5v0q12 0 21.5 -7.5t9.5 -17.5v-38q0 -11 -9.5 -18.5t-21.5 -7.5v0q-13 0 -22 7.5t-9 18.5v38v0zM703 174zM703 34q0 10 9 17.5t22 7.5v0
q12 0 21.5 -7.5t9.5 -17.5v-38q0 -11 -9.5 -18.5t-21.5 -7.5v0q-13 0 -22 7.5t-9 18.5v38v0zM703 34zM213 614l26 68q6 13 25 20.5t35 1.5l239 -90h179l-380 144q-51 19 -100 -0.5t-67 -66.5l-29 -77h72v0zM213 614zM424 769l46 55q11 10 31 11t34 -10l202 -174l101 -38h41
l-291 249q-41 36 -93.5 34t-85.5 -40l-53 -62l68 -25v0zM424 769z" />
    <glyph glyph-name="bianhao" unicode="&#xe678;" 
d="M455 300h89l27 167h-90zM512 833q-91 0 -174 -35.5t-143 -95.5t-95.5 -143t-35.5 -174t35.5 -174t95.5 -143t143 -95t174 -35t174 35t143 95t95.5 143t35.5 174t-35.5 174t-95.5 143t-143 95.5t-174 35.5zM696 467h-61l-26 -167h69l-9 -57h-69l-18 -110h-65l18 110h-89
l-18 -110h-65l18 110h-61l9 57h61l26 167h-70l9 57h70l18 110h64l-17 -110h90l17 110h65l-18 -110h61z" />
    <glyph glyph-name="ziranfengguang" unicode="&#xe6b3;" 
d="M963 -41q0 4 -1 8l-182 518q-5 14 -19.5 13.5t-18.5 -14.5l-63 -225l-239 558q-5 13 -18.5 12.5t-18.5 -12.5l-329 -847q-1 -4 -1 -7q-1 -3 -1 -6q0 -9 6 -14.5t14 -5.5h851q8 0 14 5.5t6 14.5v2zM763 412l47 -133l-41 -28l-43 29zM704 202l11 38l43 -30q5 -3 11.5 -3
t11.5 3l43 30l92 -263h-117l-96 223q1 1 1 2zM274 373l58 -53q6 -5 13 -5t13 4l73 57l72 -54q12 -9 24 0l63 43l166 -388h-636zM317 485l41 -36q12 -11 25 -1l50 38l47 -38q6 -5 13 -5q6 0 12 4l38 28l31 -72l-58 -40l-73 54q-12 10 -25 0l-72 -56l-57 51zM423 757l104 -244
l-34 -24l-47 38q-12 10 -25 0l-49 -37l-39 35z" />
    <glyph glyph-name="pinglun" unicode="&#xe654;" horiz-adv-x="1025" 
d="M917 883h-809q-45 0 -76.5 -31.5t-31.5 -76.5v-539q0 -45 31.5 -76.5t76.5 -31.5h447l235 -235q8 -8 19.5 -8t19 8t7.5 19t-8 19l-243 243q-8 8 -19 8h-458q-22 0 -38 15.5t-16 38.5v539q0 22 16 38t38 16h809q22 0 38 -16t16 -38v-539q0 -23 -16 -38.5t-38 -15.5h-107
q-12 0 -19.5 -8t-7.5 -19t7.5 -19t19.5 -8h107q45 0 76.5 31.5t31.5 76.5v539q0 45 -31.5 76.5t-76.5 31.5zM216 505.5q0 -22.5 15.5 -38.5t38 -16t38.5 16t16 38.5t-16 38t-38.5 15.5t-38 -15.5t-15.5 -38zM459 505.5q0 -22.5 15.5 -38.5t38 -16t38 16t15.5 38.5t-15.5 38
t-38 15.5t-38 -15.5t-15.5 -38zM809 505.5q0 22.5 -15.5 38t-38 15.5t-38.5 -15.5t-16 -38t16 -38.5t38.5 -16t38 16t15.5 38.5z" />
    <glyph glyph-name="cizhuan" unicode="&#xe6bc;" 
d="M-160 -263zM1003 894h-806q-9 0 -15.5 -6.5t-6.5 -14.5v-153h-152q-9 0 -15.5 -6.5t-6.5 -14.5v-806q0 -8 6.5 -14.5t15.5 -6.5h806q8 0 14.5 6.5t6.5 14.5v153h153q8 0 14.5 6.5t6.5 14.5v806q0 8 -6.5 14.5t-14.5 6.5zM787 -46q0 -9 -6 -15t-14 -6h-684q-8 0 -14 6
t-6 15v685q0 9 6 15.5t14 6.5h684q8 0 14 -6.5t6 -15.5v-685zM961 128q0 -9 -5.5 -15t-14.5 -6h-91v592q0 8 -6.5 14.5t-14.5 6.5h-591v93q0 9 5.5 15.5t13.5 6.5h684q9 0 14.5 -6.5t5.5 -15.5v-685z" />
    <glyph glyph-name="nan" unicode="&#xe633;" 
d="M390 272zM358 272q0 13 9.5 22t22.5 9t22 -9t9 -22t-9 -22.5t-22 -9.5t-22.5 9.5t-9.5 22.5zM653 272zM621 272q0 13 9 22t22.5 9t22.5 -9t9 -22t-9 -22.5t-22.5 -9.5t-22.5 9.5t-9 22.5zM903 491q-1 9 -4 23.5t-16 48t-32 53.5q3 2 7 5.5t4.5 15t-13.5 23.5q-4 1 -9 2
t-14 2.5t-12 0.5q-2 6 -5 14.5t-15 26t-25 22.5q-1 1 -3 1h-6.5t-8.5 -1.5t-8 -6t-5 -11.5q-68 34 -116 43q-6 1 -14.5 3t-31.5 9t-42.5 15.5t-40 23.5t-29.5 31l-3 3t-10 5t-18 -2q-3 -2 -6.5 -7t-8 -28t-1.5 -55l-5 -1q-19 3 -89 48q-24 6 -31 -12q-12 -44 3 -76
q-55 -10 -79 -34q-1 -1 -2.5 -3.5t-4 -9t-1.5 -11.5t7.5 -10t18.5 -6q-2 -2 -7 -5t-17 -15.5t-22 -28t-20 -42t-13 -56.5q-1 -76 23 -160q-8 -22 -5 -45q3 -33 26 -56.5t56 -28.5q22 -65 70 -113q85 -85 204.5 -85t203.5 85q50 49 71 116q32 4 55 26t28 54q5 31 -9 59
q30 86 25 150zM249 214q-25 6 -42.5 25.5t-20.5 46.5q-1 9 0 18q10 -28 22 -53q2 -2 5.5 -4.5t14 -7t17.5 0.5q1 -7 3 -14zM529 14q-97 0 -172 61t-96 154l-2 21q3 4 6 9q0 10 2 25.5t15.5 52t35.5 58.5q5 -1 14 -2t35.5 3t52.5 18q-24 -29 -46 -44q0 -1 -0.5 -3t-1.5 -7.5
t0 -10t5.5 -8t12.5 -4.5q3 -1 9.5 -1.5t25.5 -0.5t38.5 3t46.5 13t51 26q-1 -1 -1 -3t1.5 -7t5 -7t10.5 -4.5t20 1.5q33 1 86 41q1 -2 4 -4.5t17 -2t34 11.5q-1 -38 33 -97q15 -25 15 -68q4 -3 10 -6l-3 -22q-26 -86 -99 -141t-165 -55zM874 284q-4 -26 -22 -44.5t-44 -23.5
q2 6 3 12q20 -1 30 24q15 28 31 70q5 -19 2 -38z" />
    <glyph glyph-name="shengao" unicode="&#xe95f;" 
d="M66 830h35v-892h-35v892zM66 -27h892v-35h-892v35zM610 601q-32 0 -58 -23q-25 -28 -25 -58v-198q0 -12 7.5 -19.5t19.5 -7.5q14 0 21 7q8 12 8 20v177h13v-492q0 -13 12 -25q10 -10 25 -10q14 0 27 10q12 12 12 25v286h15v-286q0 -14 12 -25q13 -10 27 -10q12 0 25 10
q9 10 9 25v492h16v-177q0 -12 7.5 -19.5t19.5 -7.5q14 0 19 7q8 12 8 20v198q0 32 -23 58q-23 23 -58 23h-139v0v0zM679 617q27 0 45 17q19 19 19 46q0 28 -19 45q-17 19 -44.5 19t-44.5 -19q-17 -18 -17 -45q0 -26 17 -46q17 -17 44 -17v0zM99 766h668v-24h-668v24zM99 679
h158v-25h-158v25zM99 601h158v-24h-158v24zM99 524h158v-25h-158v25zM99 446h224v-24h-224v24zM99 369h158v-25h-158v25zM99 291h158v-24h-158v24zM99 214h158v-25h-158v25zM99 136h158v-24h-158v24zM99 59h158v-25h-158v25z" />
    <glyph glyph-name="wenjiangongxiang" unicode="&#xe68e;" 
d="M876 542v10q0 39 -25 65.5t-63 26.5h-211q-26 0 -43 10t-17 31v-4q0 37 -24.5 60t-63.5 23h-265q-39 -1 -68 -24.5t-29 -59.5v-537q14 20 37 31v506q0 21 18 33.5t42 12.5h266q24 0 39.5 -12t15.5 -34q0 -37 25.5 -55.5t66.5 -18.5h211q23 0 37 -16t14 -39v-9h-529
q-38 0 -67 -27t-29 -65v-134q17 16 36 27v107q0 23 18.5 39t41.5 16h560q23 0 37 -16t14 -39v-340q0 -23 -14 -39t-37 -16h-214q-19 -23 -42 -36h255q38 0 63 26.5t25 64.5v340q0 38 -21 63t-60 29zM650 137.5q0 43.5 -30.5 74.5t-74.5 31q-19 0 -35 -7l-26 -9l-13 24
q-19 38 -55 60t-78 22q-63 0 -107 -44t-44 -106v-35l-34 3q-5 1 -11 1q-25 0 -42.5 -17.5t-17.5 -42.5q0 -24 17.5 -42t42.5 -18h403q44 0 74.5 31t30.5 74.5z" />
    <glyph glyph-name="dianying" unicode="&#xe64a;" 
d="M928 -64h-832q-40 0 -68 28t-28 68v704q0 40 28 68t68 28h832q40 0 68 -28t28 -68v-704q0 -40 -28 -68t-68 -28zM96 768q-13 0 -22.5 -9.5t-9.5 -22.5v-704q0 -13 9.5 -22.5t22.5 -9.5h832q13 0 22.5 9.5t9.5 22.5v704q0 13 -9.5 22.5t-22.5 9.5h-832zM64 576h896v-64
h-896v64zM192 768h64v-192h-64v192zM384 768h64v-192h-64v192zM576 768h64v-192h-64v192zM768 768h64v-192h-64v192zM438 377q-54 27 -54 -43v-154q0 -69 54 -42l163 85q29 14 30.5 34t-26.5 35z" />
    <glyph glyph-name="xingye" unicode="&#xe671;" 
d="M1024 538l-218 217h-217v64q0 26 -26 51.5t-51 25.5h-154q-24 0 -44 -25t-20 -52v-64h-230q-24 0 -44 -24.5t-20 -52.5v-294q0 -27 20 -52t44 -25h230v-358q0 -26 26 -51.5t51 -25.5h141q25 0 51 25.5t26 51.5v358h217zM371 819h141v-64h-141v64zM512 -51h-141v358h141
v-358zM64 384v294h717l141 -140l-141 -154h-717z" />
    <glyph glyph-name="ren" unicode="&#xe60f;" 
d="M309 433q-33 69 -33 146q0 116 73 208q-14 2 -26 2h-0.5h-1.5q-82 0 -140.5 -58t-58.5 -140.5t59 -140.5q-82 -30 -131.5 -88.5t-49.5 -128.5q0 -28 33 -57.5t88 -52.5v1q0 91 50 172.5t138 136.5zM794 400q74 74 74 179q0 104 -73.5 178t-177.5 75h-2v0v0
q-105 0 -179 -74t-74 -179t74 -179q-104 -38 -167 -112.5t-63 -163.5q0 -31 33.5 -64.5t87.5 -61t131 -45t157 -17.5q82 0 159 17.5t131 44.5t86.5 60.5t32.5 65.5q0 89 -63 163.5t-167 112.5z" />
    <glyph glyph-name="6" unicode="&#xe612;" horiz-adv-x="1028" 
d="M608 423q-20 0 -34 -13.5t-14 -34.5q0 -19 13.5 -33t34.5 -14q19 0 33 13.5t14 33.5t-14 34t-33 14zM422 423q-20 0 -34 -13.5t-14 -34.5q0 -19 13.5 -33t34.5 -14q19 0 33 13.5t14 33.5t-14 34t-33 14zM236 423q-20 0 -34 -13.5t-14 -34.5q0 -19 13.5 -33t34.5 -14
q20 0 33.5 13.5t13.5 33.5t-14 34t-33 14zM944 853h-673q-34 0 -58.5 -24.5t-24.5 -58.5v-28q0 -8 6.5 -14t15.5 -6t14.5 5.5t5.5 14.5v28q0 16 12.5 28.5t28.5 12.5h673q16 0 28.5 -12.5t12.5 -28.5v-413q0 -17 -12.5 -29t-28.5 -12h-28q-8 0 -14 -6t-6 -15t6 -14.5
t14 -5.5h28q34 0 58.5 24.5t24.5 58.5v412q0 34 -24.5 58.5t-58.5 24.5zM758 664h-673q-34 0 -58.5 -24.5t-24.5 -59.5v-411q0 -33 24.5 -58t58.5 -27h79q9 0 14.5 -6t5.5 -15v-130v-1q4 -11 9 -14q7 -3 12 -3q7 0 8 1q7 4 9 7l107 154q6 8 17 8h412q34 0 58.5 24.5
t24.5 59.5v411q0 35 -24.5 59.5t-58.5 24.5zM799 171q0 -17 -12.5 -29t-28.5 -12h-393v-2h-29q-20 0 -34 -17l-77 -109v85q0 17 -12 29t-29 12h-99q-16 0 -28.5 12t-12.5 29v413q0 17 12.5 29t28.5 12h673q16 0 28.5 -12t12.5 -29v-411z" />
    <glyph glyph-name="ren2" unicode="&#xe69b;" 
d="M512 524zM345 524q0 69 49 118t118 49t118 -49t49 -118t-49 -118t-118 -49t-118 49t-49 118zM512 832q-91 0 -173.5 -35t-142 -95t-95 -142.5t-35.5 -173t35.5 -173t95 -142.5t142 -95t173.5 -35t173.5 35t142 95t95 142.5t35.5 173t-35.5 173t-95 142.5t-142 95
t-173.5 35zM820 111q-19 47 -61.5 101t-75.5 84l-32 30q-7 -6 -18.5 -14t-45.5 -22.5t-65 -16.5q-35 -1 -72.5 11.5t-57.5 25.5l-21 13q-4 -3 -11 -9t-27.5 -25.5t-40 -42t-44.5 -58t-44 -72.5q-47 55 -75 126t-28 144q0 112 55 206.5t149.5 149.5t206.5 55t206.5 -55
t149.5 -149.5t55 -206.5q0 -74 -28 -147t-75 -128z" />
    <glyph glyph-name="xiazai" unicode="&#xe60a;" 
d="M329 386l-30 -30l217 -217l217 217l-30 30l-166 -165v675h-42v-675zM623 683v-43h277v-725h-768v725h277v43h-320v-811h854v811h-320z" />
    <glyph glyph-name="sheyingji" unicode="&#xe701;" 
d="M686 -16h-576q-33 0 -56.5 23.5t-23.5 56.5v354q0 33 23.5 56.5t56.5 23.5h576q33 0 56.5 -23.5t23.5 -56.5v-354q0 -33 -23.5 -56.5t-56.5 -23.5zM110 466q-20 0 -34 -14t-14 -34v-354q0 -20 14 -34t34 -14h576q20 0 34 14t14 34v354q0 20 -14 34t-34 14h-576zM224 534
q-59 0 -101 41.5t-42 101t42 101.5t101 42t101 -42t42 -101.5t-42 -101t-101 -41.5zM224 788q-46 0 -78.5 -32.5t-32.5 -78.5t32.5 -78.5t78.5 -32.5t78.5 32.5t32.5 78.5t-32.5 78.5t-78.5 32.5zM572 534q-59 0 -101 41.5t-42 101t42 101.5t101 42t101 -42t42 -101.5
t-42 -101t-101 -41.5zM572 788q-46 0 -78.5 -32.5t-32.5 -78.5t32.5 -78.5t78.5 -32.5t78.5 32.5t32.5 78t-32.5 78.5t-78.5 33zM996 50q-5 0 -8 2l-164 102q-8 5 -8 14v172q0 9 8 14l164 102q8 5 16 0.5t8 -14.5v-376q0 -9 -8 -14q-4 -2 -8 -2zM848 177l132 -82v318
l-132 -82v-154z" />
    <glyph glyph-name="haoyou" unicode="&#xe676;" 
d="M681 260q6 -4 13 -4q10 0 17 6.5t7 16.5q0 12 -11 19v0q-42 29 -91 45q57 30 92 85.5t35 122.5q0 98 -69 166.5t-166 68.5t-166 -69t-69 -166q0 -67 34.5 -122.5t92.5 -85.5q-109 -35 -178 -127.5t-70 -209.5v-1v-1q1 -9 7.5 -15.5t16 -6.5t16 6.5t7.5 15.5
q0 128 90.5 218.5t218.5 90.5q94 0 173 -53v0v0v0zM320 551q0 78 55 133t133 55t133 -55t55 -133t-55 -133t-133 -55t-133 55t-55 133v0v0zM320 551zM933 206q9 10 10 24.5t-9 24.5t-24.5 10t-24.5 -10l-156 -157l-54 54q-10 9 -24.5 9.5t-24.5 -9.5t-10 -23.5t9 -23.5
l78 -78q9 -10 25.5 -9.5t26.5 10.5l-3 -2l181 180v0v0zM933 206z" />
    <glyph glyph-name="youhuiquan" unicode="&#xe62e;" 
d="M959 656q0 18 -12.5 30t-30.5 12h-586q-2 1 -3.5 1t-3.5 -1h-215q-18 0 -30.5 -12t-12.5 -30v-152q0 -2 1 -4v-2q0 -9 5.5 -14.5t13.5 -5.5q40 0 67.5 -28t27.5 -67.5t-27.5 -67t-67.5 -27.5q-8 0 -13.5 -6t-5.5 -14v-3q-1 -2 -1 -4v-149q0 -18 12.5 -30.5t30.5 -12.5
h808q18 0 30.5 12.5t12.5 30.5v157q0 8 -6 14t-14 6h-1q-39 0 -66.5 28t-27.5 67q0 41 27 68t68 27q8 0 14 6t6 14v0v1v156zM843 479q-38 -39 -38 -95q0 -50 32.5 -88t81.5 -45v-139q0 -3 -3 -3h-570v55q0 9 -5.5 14.5t-14 5.5t-14 -5.5t-5.5 -14.5v-55h-199q-3 0 -3 3v138
q49 7 82 44.5t33 88t-33 88.5t-82 45v140q0 3 3 3h199v-53q0 -8 5.5 -13.5t14 -5.5t14 5.5t5.5 13.5v53h570q3 0 3 -3v-139q-45 -6 -76 -38zM326.5 539q-8.5 0 -14 -5.5t-5.5 -13.5v-90q0 -8 5.5 -14t14 -6t14 6t5.5 14v90q0 8 -5.5 13.5t-14 5.5zM326.5 361q-8.5 0 -14 -6
t-5.5 -14v-90q0 -8 5.5 -14t14 -6t14 6t5.5 14v90q0 8 -5.5 14t-14 6zM710 376q8 0 14 5.5t6 14t-6 14t-14 5.5h-92v5l91 91q6 6 6 14t-6 14t-14 6t-14 -6l-81 -82l-82 82q-6 6 -14 6t-14 -6t-6 -14t6 -14l88 -88v-8h-90q-8 0 -14 -5.5t-6 -14t6 -14t14 -5.5h90v-31h-90
q-8 0 -14 -6t-6 -14t6 -14t14 -6h90v-50q0 -8 6 -13.5t14 -5.5t14 5.5t6 13.5v50h92q8 0 14 6t6 14t-6 14t-14 6h-92v31h92z" />
    <glyph glyph-name="ren3" unicode="&#xe60b;" 
d="M511 790q-98 0 -167 -69t-69 -166q0 -69 37.5 -126.5t98.5 -86.5q-113 -33 -184.5 -127t-71.5 -214q0 -8 5.5 -13.5t13 -5.5t13 5.5t5.5 13.5q0 86 42.5 159.5t116 116.5t160.5 43q97 0 166 69t69 166t-69 166t-166 69v0zM511 357q-82 0 -140.5 58t-58.5 140t58.5 140
t140.5 58t140 -58t58 -140t-58 -140t-140 -58v0zM511 357zM726 284q-6 5 -13.5 4t-12 -7.5t-3.5 -14t7 -12.5q60 -45 92.5 -111.5t32.5 -141.5q0 -8 5.5 -13.5t13 -5.5t13 5.5t5.5 13.5q0 84 -36.5 158t-103.5 125v0zM726 284z" />
    <glyph glyph-name="shouye1" unicode="&#xe69c;" 
d="M760 656h-496q-54 0 -93 -39t-39 -94v-454q0 -55 39 -94t93 -39h496q55 0 94 39t39 94v454q0 55 -39 94t-94 39zM831 69q0 -29 -20.5 -49.5t-50.5 -20.5h-496q-29 0 -49.5 20.5t-20.5 49.5v454q0 30 20.5 50.5t49.5 20.5h52v-1v-41q0 -13 9 -22t22 -9t22.5 9t9.5 22v41v1
h267v-1v-41q0 -13 9.5 -22t22 -9t22 9t9.5 22v41v1h51q30 0 50.5 -20.5t20.5 -50.5v-454zM333.5 685.5q11.5 -5.5 24 -1.5t18.5 15q1 4 4.5 9t15 17t26 21t39 16t52.5 7t52.5 -7t38.5 -16t25.5 -21t14.5 -17t5 -8q9 -18 28 -18q7 0 14 3q11 6 15.5 18t-0.5 24l-7.5 12.5
t-21 25.5t-36.5 31.5t-54.5 24.5t-74 11t-74 -11t-54.5 -24.5t-36 -31t-21 -25.5t-7 -13q-6 -12 -2 -24t15.5 -17.5zM391 460q-13 0 -22.5 -9t-9.5 -22v-31q0 -13 9.5 -22t22.5 -9t22 9t9 22v31q0 13 -9 22t-22 9zM634 460q-13 0 -22 -9t-9 -22v-31q0 -13 9 -22t22 -9
t22.5 9t9.5 22v31q0 13 -9.5 22t-22.5 9zM589 319q-11 7 -23.5 4t-19.5 -14q-1 -1 -4 -4.5t-12 -9t-18 -5.5q-20 0 -33 19q-7 11 -19.5 14t-23.5 -4t-14 -19.5t4 -23.5q11 -18 34 -33t52.5 -15t52 15t34.5 33q7 11 4 23.5t-14 19.5z" />
    </font>
</defs>
</svg>
